<?xml version="1.0" encoding="utf-8"?>
<!-- Generator: Adobe Illustrator 22.0.1, SVG Export Plug-In . SVG Version: 6.00 Build 0)  -->
<svg version="1.1" id="Layer_1" xmlns="http://www.w3.org/2000/svg" xmlns:xlink="http://www.w3.org/1999/xlink" x="0px" y="0px"
	 viewBox="0 0 283.6 126.7" style="enable-background:new 0 0 283.6 126.7;" xml:space="preserve">
<style type="text/css">
	.st0{fill:#1F4360;}
</style>
<g>
	<g>
		<path  fill="#1F4360;" d="M24.2,56l-2.5-9.6H9.5L6.9,56l3.2,0.1v0.6H3.3v-0.6L6.2,56l9.1-34.3H16L24.9,56l3.5,0.1v0.6h-7.9v-0.6
			L24.2,56z M15.6,23l-6,22.8h11.9L15.6,23L15.6,23z"/>
		<path  fill="#1F4360;" d="M31.4,22.7v-0.5h10.6c4.3,0,6.5,2,6.5,6.3v5c0,2.6-1.8,4.3-4.2,4.8c3.3,0.5,5.3,1.9,5.3,5.6v5.8
			c0,4.8-2.8,7-7.5,7H31v-0.6l3.9-0.1V22.9L31.4,22.7z M35.6,54.7c0,0.4,0,0.9-0.1,1.3V56h6.6c4.2,0,6.7-1.8,6.7-6.3v-5.8
			c0-4.4-3.3-5.1-6.9-5.1c-2.1,0-4.2,0-6.3,0V54.7z M41.8,38.1c2.9,0,6-1.3,6-4.6v-5c0-4-2-5.6-5.8-5.6h-6.3v15.2H41.8z"/>
		<path  fill="#1F4360;" d="M71.9,31.1c0,5.6,0,11.2,0,16.8c0,5.1-2.8,9.7-8.3,9.7c-5.5,0-8.3-4.5-8.3-9.7c0-5.5,0-11.2,0-16.8
			c0-5.1,2.8-9.6,8.3-9.6C69.1,21.4,71.9,26,71.9,31.1z M71.2,47.8c0-5.5,0-11.2,0-16.8c0-4.6-2.6-8.9-7.6-8.9S56,26.4,56,31.1
			c0,5.6,0,11.2,0,16.8c0,4.7,2.6,9,7.6,9S71.2,52.5,71.2,47.8z"/>
		<path  fill="#1F4360;" d="M88.2,57.3c-5.5,0-7.8-4.5-7.8-9.6c0-8.3,0-16.6,0-24.9l-3.7-0.1v-0.6h8.1v0.6l-3.7,0.1c0,8.3,0,16.6,0,24.9
			c0,4.6,2,8.9,7,8.9c5,0,7-4.3,7-8.9c0-8.3,0-16.6,0-24.9l-3.3-0.1v-0.6h7.1v0.6l-3.2,0.1c0,8.3,0,16.6,0,24.9
			C95.9,52.8,93.7,57.3,88.2,57.3z"/>
		<path  fill="#1F4360;" d="M105.8,56.2l4.2-0.1V22.8h-7.3l-0.4,8.1h-0.6l0.4-8.8c5.5,0,11,0,16.6,0l0.4,8.8h-0.6l-0.5-8.1h-7.3V56
			l4.3,0.1v0.6h-9.1V56.2z"/>
		<path  fill="#1F4360;" d="M151,54.5v2.3c-3.6,0-7.8,0-11.5,0v-2.3l3.1-1.9c0-14.5,0-29.1,0-43.6l-3-1.9V4.9c3.9,0,7,0,10.9,0
			c2.7,0,3.7,0.7,4.4,3.5c2.7,14.6,4.4,24.3,6.1,38.9h0.1l6.6-39.1c0.6-2.7,1.6-3.3,4.4-3.2c4.2,0,6.5-0.1,10.7-0.1v2.1L179.9,9
			c0,14.5,0,28.9,0,43.4l3.3,2.2v2.1c-4.2,0-9.9,0-14.1,0v-2.1l3.3-2.2c0-11.6,0-23.2,0-34.9l0.2-7.4h-0.3L164.1,56h-6.1
			c-1.6,0-2.3-0.7-2.5-2.1c-2.4-14.7-4.8-28.6-7.5-43.3h-0.4l0.4,9.5c0,10.8,0,21.5,0,32.3L151,54.5z"/>
		<path  fill="#1F4360;" d="M189.6,56.8v-2.1l3.3-2.2c0-14.6,0-29.2,0-43.7l-2.8-1.9V4.9c9,0,17.3,0,26.3,0v11.6h-3.7l-2.1-7.3h-10.1
			c0,6.4,0,13,0,19.5h7.1l1.9-4.1h2.2c0,3.6,0,8.9,0,12.5h-2.2l-1.9-3.9h-7.1c0,5.5,0,10.9,0,16.4c0,1.2-0.3,1.9-1.6,2.3v0.4
			c4.2,0,8.4,0,12.6,0l2.5-7.1h3.3v11.6C208.2,56.8,198.9,56.8,189.6,56.8z"/>
		<path  fill="#1F4360;" d="M248.8,29.1h-0.7v-2.4c0-4.1-2.5-6.7-6.6-6.7c-3.4,0-6.6,2.4-6.6,6.7c0,1.4,0,3.3,0,4.7
			c0,3.5,2.6,5.8,6.2,5.8h10.4v0.7h-2.7v18.3l4.1,0.2v0.5c-3.8,0-7.5,0-11.2,0c-4.7,0-8.7-2.4-8.7-7.5c0-1.4,0-4.4,0-5.8
			c0-3.8,2.4-5.5,5.8-6c-3-0.8-4.7-2.9-4.7-6c0-1.4,0-3.3,0-4.7c0-4.8,3.6-7.4,7.3-7.4c4.5,0,7.3,3,7.3,7.4V29.1z M248.4,55.9
			c-0.2-0.8-0.2-1.6-0.2-2.5V37.8h-7c-3.5,0-7.3,1.3-7.3,5.6c0,1.4,0,4.4,0,5.8c0,4.7,3.7,6.9,7.9,6.9h6.6V55.9z"/>
	</g>
	<g>
		<path  fill="#1F4360;" d="M17.7,71.1l-5.1,0.1l8,44.1L29,71.5h1.1l8.6,43.7l8-44.1l-4-0.1v-0.9h8.8v0.9l-3.8,0.1l-8.3,45.7h-1.1
			l-8.6-43.1L21,116.9h-1.1l-8.3-45.7l-4.5-0.1v-0.9h10.6V71.1z"/>
		<path  fill="#1F4360;" d="M56.1,115.7l5.3-0.2c0-14.8,0-29.5,0-44.3L56.3,71v-0.8h11.3V71l-5.2,0.2v21.5H80V71.2L74.9,71v-0.8h11.2V71
			L81,71.2c0,14.8,0,29.5,0,44.3l5.3,0.2v0.8H74.7v-0.8l5.3-0.2v-22H62.4v22l5.3,0.2v0.8H56.1V115.7z"/>
		<path  fill="#1F4360;" d="M118,115.5l-3.3-12.8H98.4L95,115.5l4.3,0.2v0.8h-9.1v-0.9l3.9-0.1l12.1-45.8h1l11.9,45.8l4.6,0.1v0.9h-10.5
			v-0.9L118,115.5z M106.6,71.3l-8,30.4h15.8L106.6,71.3L106.6,71.3z"/>
		<path  fill="#1F4360;" d="M128.8,115.7l5.5-0.2V71.1h-9.7L124.1,82h-0.9l0.6-11.7c7.4,0,14.7,0,22.1,0l0.5,11.7h-0.8L145,71.1h-9.7
			v44.3l5.7,0.2v0.8h-12.2V115.7z"/>
		<path  fill="#1F4360;" d="M179.5,112l3.3,2.3v2.2c-4.3,0-10,0-14.4,0v-2.2l3.4-2.3c0-14.8,0-29.5,0-44.3l-2.9-2v-2.2h13.4v2.2l-2.9,2
			C179.5,82.5,179.5,97.2,179.5,112z"/>
		<path  fill="#1F4360;" d="M220.9,63.5c9.1,0,15.2,3.8,15.2,13.7v25.4c0,9.4-6.3,13.9-15.2,13.9h-16.3v-2.2l3.3-2.3V68l-2.9-2.3v-2.2
			H220.9z M215.8,68.1v40.8c0,1.3-0.4,2-1.7,2.3l0.1,0.5h6.6c5.6-0.1,7.3-4.1,7.3-9.1V77.2c0-5-1.7-9-7.3-9.1H215.8z"/>
		<path  fill="#1F4360;" d="M275.8,103.1c0,8.5-5.9,14.1-15.2,14.1c-9.2,0-15.1-5.7-15.1-14.1V76.8c0-8.5,5.9-14.1,15.1-14.1
			c9.3,0,15.2,5.6,15.2,14.1V103.1z M253.4,103.1c0,5.9,2.3,9.1,7.3,9.1c5.1,0,7.4-4.2,7.4-9.1V76.8c0-5-2.3-9.1-7.4-9.1
			c-5,0-7.3,3.1-7.3,9.1V103.1z"/>
	</g>
</g>
</svg>
