<?xml version="1.0" encoding="utf-8"?>
<!-- Generator: Adobe Illustrator 22.0.1, SVG Export Plug-In . SVG Version: 6.00 Build 0)  -->
<svg version="1.1" id="Layer_1" xmlns="http://www.w3.org/2000/svg" xmlns:xlink="http://www.w3.org/1999/xlink" x="0px" y="0px"
	 viewBox="0 0 338.1 202.4" style="enable-background:new 0 0 338.1 202.4;" xml:space="preserve">
<style type="text/css">
	.st0{fill:none;}
	.st1{fill:#1F4360;}
</style>
<g>
	<g>
		<g>
			<path class="me-me-me" d="M208,117.4c-3.4,0-7.9,1.2-7.9,1.2l-22.4,23.9l5.7,0.1c1.9-0.8,6.6-2.5,7.7-2.9c1.1-0.4,13-4.8,13,13.8V200
				H232v-58.5C232,123.1,218.6,117.4,208,117.4z"/>
			<g>
				<rect x="155.1" y="119" class="me-me-me" width="31.6" height="81"/>
			</g>
			<path class="me-me-me" d="M256.8,158.2c0-13.3,6-25.1,15.4-33.1c-4.9-5.7-12.2-7.7-18.6-7.7c-3.4,0-7.9,1.2-7.9,1.2l-22.4,23.9
				l5.7,0.1c1.9-0.8,6.6-2.5,7.7-2.9c1.1-0.4,13-4.8,13,13.8V200h27.7v-4.8c-3-1.8-5.7-4-8.2-6.5
				C261.3,180.6,256.8,169.7,256.8,158.2z"/>
		</g>
		<path class="me-me-me" d="M329.9,152.6c0-21.6-12.3-36-30-36c-23,0-41.5,18.6-41.5,41.6s18.4,41.6,41.5,41.6c0.8,0,30,0,30,0v-21.7
			c0,0-29,0-29.9,0c-7.5,0-14.6-8-14.6-15h44.5C329.9,163.1,329.9,155.6,329.9,152.6z M285.5,147.5L285.5,147.5
			C285.5,147.5,285.5,147.5,285.5,147.5c0-9.7,4.6-15.6,11.9-15.6c7.1,0,11.8,5.9,11.8,15.6C309.2,147.5,285.5,147.5,285.5,147.5z"
			/>
	</g>
	<g>
		<path class="me-me-me" d="M320.7,88.9c-3,0-5.2-0.6-6.7-1.9c-1.5-1.3-2.2-3.6-2.2-7V56h18.6V33.7h-18.6V20.2h-29.1v85.6
			c0,2.3,0.6,3.9,1.7,4.8c1.2,0.9,2.8,1.6,4.7,1.6c0.8,0,41.2,0,41.2,0l4.6-23.4C335,88.9,325.8,88.9,320.7,88.9z"/>
		<path class="me-me-me" d="M250.3,31.5v59.8c-18.6,0.3-23.1,0.1-23.1-15.3V31.5h-27.1v10.9c8.1,7.8,13.2,18.7,13.2,30.9
			c0,10.5-3.8,20.1-10.1,27.6c5,8.4,15.1,11.4,23.4,11.4c2.4,0,18.6,0,18.6,0l5.1-6.8v6.8h30.9V31.5H250.3z"/>
		<path class="me-me-me" d="M64.6,62.8c0-16.7-13.6-27.9-27.1-27.9c0,0,0,0,0,0c-6.1,0-20.9,0-20.9,0l-6.2,22.1c0,0,22.3,0,25.2,0
			s5.4,2.7,5.4,5.5c0,0,0,0.1,0,0.1c-0.1,0-13.5,4.8-13.6,4.8C12.1,72.8,3.9,79.8,3.2,89.9c-0.8,10.2,9.4,22.4,21.3,22.4
			c1.8,0,4.8,0,4.8,0l11.7-8.2v8.2h23.7C64.6,112.3,64.6,69.9,64.6,62.8z M41,93c0,0-5,3.8-6.9,4c-4.8,0.5-10.3-2-9.9-10.9
			c0.2-3.5,3.2-7.6,6-9.2c3.9-2.1,10.7-4.2,10.7-4.2V93z"/>
		<path class="me-me-me" d="M170.5,32c-14.7,0-27.6,7.7-34.9,19.2c5.9,7.9,9,16.9,9,26.8c0,8.3-2,15.5-6,21.5
			c7.6,9.2,19.1,15.1,31.9,15.1c22.8,0,41.3-18.5,41.3-41.3C211.8,50.5,193.3,32,170.5,32z M170.4,89.1c-3.3,0-5.8-1.3-7.3-3.9
			c-1.5-2.6-2.3-6.7-2.3-12.4c0-10.3,3.2-15.5,9.7-15.5c3.7,0,6.3,1.5,7.8,4.6c1.3,2.5,1.9,6.2,1.9,11.3
			C180.2,83.8,176.9,89.1,170.4,89.1z"/>
		<g>
			<path class="me-me-me" d="M66.2,112.3h29.7V102l9.4,10.3c1.2,0,2.4,0,3.6,0c10.7,0,19.1-3.2,25.2-9.6c6-6.4,9-14.6,9-24.8
				c0-11.7-4.3-22-12.8-30.8c-8.6-8.9-22.2-13.3-34.3-13.3V2.5H66.2V112.3z M95.9,51.2c2.7-1.2,5.2-1.7,8.2-1.7
				c4.3,0,7.6,2.3,9.7,6.8c2.1,4.5,3.1,10.1,3.1,16.8c0,7.3-1.1,12.7-3.4,16.2c-2.3,3.5-5.5,5.3-9.5,5.3c-3,0-5.5-1.1-8.1-3.2V51.2z
				"/>
		</g>
	</g>
</g>
</svg>
