<?xml version="1.0" encoding="utf-8"?>
<!-- Generator: Adobe Illustrator 22.0.1, SVG Export Plug-In . SVG Version: 6.00 Build 0)  -->
<svg version="1.1" id="Layer_1" xmlns="http://www.w3.org/2000/svg" xmlns:xlink="http://www.w3.org/1999/xlink" x="0px" y="0px"
	 viewBox="0 0 531.5 116.4" style="enable-background:new 0 0 531.5 116.4;" xml:space="preserve">
<style type="text/css">
	.st0{fill:none;}
	.st1{fill:#1F4360;}
</style>
<path  fill="#1F4360;" d="M169.6,61.5c-6.5,0-9.7,5.1-9.7,15.5c0,5.7,0.8,9.8,2.3,12.4c1.5,2.6,4,3.9,7.3,3.9c6.5,0,9.8-5.3,9.8-15.9
	c0-5.1-0.6-8.8-1.9-11.3C175.8,63,173.2,61.5,169.6,61.5z"/>
<path  fill="#1F4360;" d="M103.2,55c-2.3,0-4.4,0.4-6.7,1.2v38.5c2.2,1.7,4.3,2.4,6.6,2.4c3.5,0,6.2-1.5,8.2-4.6
	c2.1-3.3,3.2-8.5,3.2-15.4c0-6.5-1-11.9-3-16.2C109.6,57,106.9,55,103.2,55z"/>
<g>
	<g>
		<g>
			<path class="st1" d="M407.4,29.4c-3.4,0-7.9,1.2-7.9,1.2l-22.4,23.9l5.7,0.1c1.9-0.8,6.6-2.5,7.7-2.9c1.1-0.4,13-4.8,13,13.8V112
				h27.7V53.5C431.3,35.1,418,29.4,407.4,29.4z"/>
			<g>
				<rect x="354.5" y="31" class="st1" width="31.6" height="81"/>
			</g>
			<path class="st1" d="M456.2,70.2c0-13.3,6-25.1,15.4-33.1c-4.9-5.7-12.2-7.7-18.6-7.7c-3.4,0-7.9,1.2-7.9,1.2l-22.4,23.9l5.7,0.1
				c1.9-0.8,6.6-2.5,7.7-2.9c1.1-0.4,13-4.8,13,13.8V112H477v-4.8c-3-1.8-5.7-4-8.2-6.5C460.7,92.6,456.2,81.8,456.2,70.2z"/>
		</g>
		<path class="st1" d="M529.3,64.6c0-21.6-12.3-36-30-36c-23,0-41.5,18.6-41.5,41.6s18.4,41.6,41.5,41.6c0.8,0,30,0,30,0V90.1
			c0,0-29,0-29.9,0c-7.5,0-14.6-8-14.6-15h44.5C529.3,75.1,529.3,67.6,529.3,64.6z M484.9,59.5L484.9,59.5
			C484.9,59.5,484.9,59.5,484.9,59.5c0-9.7,4.6-15.6,11.9-15.6c7.1,0,11.8,5.9,11.8,15.6C508.6,59.5,484.9,59.5,484.9,59.5z"/>
	</g>
	<g>
		<path class="st1" d="M319.7,88.6c-3,0-5.2-0.6-6.7-1.9c-1.5-1.3-2.2-3.6-2.2-7v-24h18.6V33.4h-18.6V19.9h-29.1v85.6
			c0,2.3,0.6,3.9,1.7,4.8c1.2,0.9,2.8,1.6,4.7,1.6c0.8,0,41.2,0,41.2,0l4.6-23.4C334,88.6,324.8,88.6,319.7,88.6z"/>
		<path class="st1" d="M249.4,31.2V91c-18.6,0.3-23.1,0.1-23.1-15.3V31.2h-27.1v10.9c8.1,7.8,13.2,18.7,13.2,30.9
			c0,10.5-3.8,20.1-10.1,27.6c5,8.4,15.1,11.4,23.4,11.4c2.4,0,18.6,0,18.6,0l5.1-6.8v6.8h30.9V31.2H249.4z"/>
		<path class="st1" d="M63.7,62.5c0-16.7-13.6-27.9-27.1-27.9c0,0,0,0,0,0c-6.1,0-20.9,0-20.9,0L9.5,56.6c0,0,22.3,0,25.2,0
			c2.9,0,5.4,2.7,5.4,5.5c0,0,0,0.1,0,0.1C40,62.2,26.6,67,26.5,67C11.2,72.4,3,79.5,2.3,89.6C1.5,99.9,11.7,112,23.6,112
			c1.8,0,4.8,0,4.8,0l11.7-8.2v8.2h23.7C63.7,112,63.7,69.6,63.7,62.5z M40,92.7c0,0-5,3.8-6.9,4c-4.8,0.5-10.3-2-9.9-10.9
			c0.2-3.5,3.2-7.6,6-9.2c3.9-2.1,10.7-4.2,10.7-4.2V92.7z"/>
		<path class="st1" d="M169.6,31.7c-14.7,0-27.6,7.7-34.9,19.2c5.9,7.9,9,16.9,9,26.8c0,8.3-2,15.5-6,21.5
			c7.6,9.2,19.1,15.1,31.9,15.1c22.8,0,41.3-18.5,41.3-41.3C210.9,50.2,192.4,31.7,169.6,31.7z M169.5,88.8c-3.3,0-5.8-1.3-7.3-3.9
			c-1.5-2.6-2.3-6.7-2.3-12.4c0-10.3,3.2-15.5,9.7-15.5c3.7,0,6.3,1.5,7.8,4.6c1.3,2.5,1.9,6.2,1.9,11.3
			C179.2,83.5,176,88.8,169.5,88.8z"/>
		<g>
			<path class="st1" d="M65.3,112H95v-10.3l9.4,10.3c1.2,0,2.4,0,3.6,0c10.7,0,19.1-3.2,25.2-9.6c6-6.4,9-14.6,9-24.8
				c0-11.7-4.3-22-12.8-30.8C120.7,38,107.1,33.6,95,33.6V2.2H65.3V112z M95,50.9c2.7-1.2,5.2-1.7,8.2-1.7c4.3,0,7.6,2.3,9.7,6.8
				c2.1,4.5,3.1,10.1,3.1,16.8c0,7.3-1.1,12.7-3.4,16.2c-2.3,3.5-5.5,5.3-9.5,5.3c-3,0-5.5-1.1-8.1-3.2V50.9z"/>
		</g>
	</g>
</g>
</svg>
