<?xml version="1.0" encoding="utf-8"?>
<!-- Generator: Adobe Illustrator 22.0.1, SVG Export Plug-In . SVG Version: 6.00 Build 0)  -->
<svg version="1.1" id="Layer_1" xmlns="http://www.w3.org/2000/svg" xmlns:xlink="http://www.w3.org/1999/xlink" x="0px" y="0px"
	 viewBox="0 0 162 430" style="enable-background:new 0 0 162 430;" xml:space="preserve">
<style type="text/css">
	.st0{fill:none;}
	.st1{fill:#1F4360;}
</style>
<g>
	<g>
		<g>
			<path class="me-me-me" d="M133.6,109.7c0,3-0.6,5.2-1.9,6.7c-1.3,1.5-3.6,2.2-7,2.2h-24V100H78.4v18.6H65v29.1h85.6
				c2.3,0,3.9-0.6,4.8-1.7c0.9-1.2,1.6-2.8,1.6-4.7c0-0.8,0-41.2,0-41.2l-23.4-4.6C133.6,95.4,133.6,104.5,133.6,109.7z"/>
			<path class="me-me-me" d="M76.2,180H136c0.3,18.6,0.1,23.1-15.3,23.1H76.2v27.1h10.9c7.8-8.1,18.7-13.2,30.9-13.2
				c10.5,0,20.1,3.8,27.6,10.1c8.4-5,11.4-15.1,11.4-23.4c0-2.4,0-18.6,0-18.6l-6.8-5.1h6.8v-30.9H76.2V180z"/>
			<path class="me-me-me" d="M107.5,365.7c-16.7,0-27.9,13.6-27.9,27.1c0,0,0,0,0,0c0,6.1,0,20.9,0,20.9l22.1,6.2c0,0,0-22.3,0-25.2
				s2.7-5.4,5.5-5.4c0,0,0.1,0,0.1,0c0,0.1,4.8,13.5,4.8,13.6c5.5,15.3,12.5,23.5,22.6,24.2c10.2,0.8,22.4-9.4,22.4-21.3
				c0-1.8,0-4.8,0-4.8l-8.2-11.7h8.2v-23.7C157.1,365.7,114.7,365.7,107.5,365.7z M137.7,389.3c0,0,3.8,5,4,6.9
				c0.5,4.8-2,10.3-10.9,9.9c-3.5-0.2-7.6-3.2-9.2-6c-2.1-3.9-4.2-10.7-4.2-10.7H137.7z"/>
			<path class="me-me-me" d="M76.7,259.8c0,14.7,7.7,27.6,19.2,34.9c7.9-5.9,16.9-9,26.8-9c8.3,0,15.5,2,21.5,6
				c9.2-7.6,15.1-19.1,15.1-31.9c0-22.8-18.5-41.3-41.3-41.3C95.2,218.5,76.7,237,76.7,259.8z M133.9,259.9c0,3.3-1.3,5.8-3.9,7.3
				c-2.6,1.5-6.7,2.3-12.4,2.3c-10.3,0-15.5-3.2-15.5-9.7c0-3.7,1.5-6.3,4.6-7.8c2.5-1.3,6.2-1.9,11.3-1.9
				C128.6,250.1,133.9,253.4,133.9,259.9z"/>
			<g>
				<path class="me-me-me" d="M157.1,364.1v-29.7h-10.3l10.3-9.4c0-1.2,0-2.4,0-3.6c0-10.7-3.2-19.1-9.6-25.2c-6.4-6-14.6-9-24.8-9
					c-11.7,0-22,4.3-30.8,12.8c-8.9,8.6-13.3,22.2-13.3,34.3H47.2v29.7H157.1z M95.9,334.4c-1.2-2.7-1.7-5.2-1.7-8.2
					c0-4.3,2.3-7.6,6.8-9.7c4.5-2.1,10.1-3.1,16.8-3.1c7.3,0,12.7,1.1,16.2,3.4c3.5,2.3,5.3,5.5,5.3,9.5c0,3-1.1,5.5-3.2,8.1H95.9z"
					/>
			</g>
		</g>
	</g>
	<g>
		<g>
			<path class="me-me-me" d="M49.4,3.5c-3,0-6.9,1-6.9,1L22.7,25.7l5.1,0.1c1.7-0.7,5.8-2.2,6.8-2.5c1-0.4,11.5-4.3,11.5,12.2v41.1h24.5
				V24.8C70.6,8.5,58.8,3.5,49.4,3.5z"/>
			<g>
				<rect x="2.7" y="5" class="me-me-me" width="27.9" height="71.5"/>
			</g>
			<path class="me-me-me" d="M92.5,39.6c0-11.7,5.3-22.2,13.6-29.2c-4.3-5-10.8-6.8-16.4-6.8c-3,0-6.9,1-6.9,1L63,25.7l5.1,0.1
				c1.7-0.7,5.8-2.2,6.8-2.5c1-0.4,11.5-4.3,11.5,12.2v41.1h24.5v-4.2c-2.6-1.6-5-3.5-7.2-5.7C96.5,59.3,92.5,49.8,92.5,39.6z"/>
		</g>
		<path class="me-me-me" d="M157,34.6c0-19.1-10.9-31.8-26.4-31.8c-20.3,0-36.7,16.4-36.7,36.7s16.3,36.8,36.6,36.8c0.7,0,26.5,0,26.5,0
			V57.1c0,0-25.6,0-26.4,0c-6.7,0-12.9-7.1-12.9-13.2H157C157,43.9,157,37.3,157,34.6z M117.8,30.1L117.8,30.1
			C117.8,30.1,117.8,30.1,117.8,30.1c0-8.6,4.1-13.8,10.5-13.8c6.3,0,10.4,5.2,10.4,13.8C138.8,30.1,117.8,30.1,117.8,30.1z"/>
	</g>
</g>
</svg>
