<?xml version="1.0" encoding="utf-8"?>
<!-- Generator: Adobe Illustrator 22.0.1, SVG Export Plug-In . SVG Version: 6.00 Build 0)  -->
<svg version="1.1" id="Layer_1" xmlns="http://www.w3.org/2000/svg" xmlns:xlink="http://www.w3.org/1999/xlink" x="0px" y="0px"
	 viewBox="0 0 179 17" style="enable-background:new 0 0 179 17;" xml:space="preserve">

<g>
	<g>
		<path class="aod_color-orange" d="M64.9,2.6c-0.4-0.7-1-1.2-1.8-1.5s-2-0.5-3.7-0.5h-3.2v3.7v12.1h3v-3v-2.9V9.7c1.5,0,2.6-0.1,3.2-0.2
			c0.1,0,0.1-0.1,0.2-0.1c0.9-0.3,1.6-0.8,2.1-1.4c0.2-0.3,0.4-0.6,0.5-0.9c0.2-0.5,0.3-1.1,0.3-1.8C65.5,4.2,65.3,3.4,64.9,2.6z
			 M62.4,6.1c-0.2,0.2-0.4,0.4-0.7,0.5c-0.3,0.1-0.8,0.2-1.6,0.2h-1V4.3V3.6H60c0.9,0,1.6,0.1,1.9,0.3c0.3,0.2,0.5,0.4,0.6,0.7
			c0.1,0.2,0.1,0.4,0.1,0.6C62.6,5.5,62.6,5.8,62.4,6.1z"/>
		<path class="aod_color-orange" d="M122.9,2.7c-1.6-1.6-3.5-2.4-5.7-2.4c-1.5,0-2.8,0.4-4.1,1.1c-1.3,0.7-2.3,1.7-3,3S109,7,109,8.5
			c0,0.6,0.1,1.2,0.2,1.8c0.3,1.5,1,2.8,2.1,4c0.6,0.6,1.3,1.1,2,1.5c1.1,0.6,2.4,0.9,3.8,0.9c1.4,0,2.6-0.3,3.7-0.9
			c0.7-0.4,1.4-0.8,2-1.5c1.1-1.2,1.9-2.5,2.2-4c0.1-0.6,0.2-1.2,0.2-1.8C125.3,6.2,124.5,4.3,122.9,2.7z M122,10.4
			c-0.2,0.7-0.6,1.4-1.2,2c-1,1-2.2,1.5-3.6,1.5c-1.3,0-2.4-0.4-3.3-1.2c-0.8-0.6-1.3-1.4-1.6-2.3c-0.2-0.6-0.3-1.1-0.3-1.8
			c0-1.5,0.5-2.7,1.3-3.7c0-0.1,0.1-0.1,0.1-0.2c1-1,2.2-1.5,3.7-1.5c1.4,0,2.7,0.5,3.7,1.6c0,0,0.1,0.1,0.1,0.1
			c0.9,1,1.4,2.2,1.4,3.7C122.3,9.2,122.2,9.8,122,10.4z"/>
		<path class="aod_color-orange" d="M148.3,12.2l-1.5-2.8c1-0.4,1.7-0.9,2.2-1.6c0.2-0.2,0.3-0.5,0.4-0.7c0.2-0.5,0.3-1.2,0.3-1.9
			c0-1-0.2-1.8-0.7-2.6c-0.4-0.7-1-1.2-1.8-1.5c-0.7-0.3-2-0.5-3.7-0.5h-3.2v3.7v12.1h3v-3v-2.9V9.7h0.3l0.4,0.7l3.2,5.9h1.3h1.9
			L148.3,12.2z M143.4,3.6h0.8c0.8,0,1.3,0.1,1.6,0.2c0.3,0.1,0.5,0.3,0.7,0.5c0.1,0.1,0.1,0.2,0.1,0.3c0.1,0.2,0.1,0.4,0.1,0.6
			c0,0.6-0.2,1-0.5,1.2c-0.4,0.2-1,0.4-2,0.4h-0.9V4.3V3.6z"/>
		<polygon class="aod_color-orange" points="88.7,13.5 88.7,4.3 88.7,0.6 85.7,0.6 85.7,4.3 85.7,16.4 88.7,16.4 93.1,16.4 93.1,13.5 		"/>
		<polygon class="aod_color-orange" points="3.6,3.6 9.3,3.6 9.3,0.6 0.7,0.6 0.7,4.3 0.7,16.4 3.6,16.4 9.3,16.4 9.3,13.4 3.6,13.4 3.6,12.9 
			3.6,10.1 3.6,9.3 9.3,9.3 9.3,7.2 9.3,6.4 3.6,6.4 3.6,4.3 		"/>
		<polygon class="aod_color-orange" points="172.7,3.6 178.3,3.6 178.3,0.6 169.7,0.6 169.7,4.3 169.7,16.4 172.7,16.4 178.3,16.4 178.3,13.4 
			172.7,13.4 172.7,12.9 172.7,10.1 172.7,9.3 178.3,9.3 178.3,7.2 178.3,6.4 172.7,6.4 172.7,4.3 		"/>
		<polygon class="aod_color-orange" points="35.4,10.1 34.2,8.2 36.8,4.3 39.2,0.6 35.8,0.6 32.5,5.7 29.2,0.6 25.8,0.6 28.2,4.3 30.8,8.2 
			29.6,10.1 25.5,16.4 27.9,16.4 28.9,16.4 32.5,10.8 36.1,16.4 37.1,16.4 39.5,16.4 		"/>
	</g>
	<g class="aod_color_shadow_opacity">
		<path class="aod_color_darkgrey" d="M117.2,13.9c-1.3,0-2.4-0.4-3.3-1.2c-0.8-0.6-1.3-1.4-1.6-2.3c-0.2,0.6-0.3,1.2-0.3,1.9
			c0,1.5,0.5,2.7,1.4,3.6c1.1,0.6,2.4,0.9,3.8,0.9c1.4,0,2.6-0.3,3.7-0.9c0.9-1,1.4-2.2,1.4-3.7c0-0.7-0.1-1.3-0.3-1.8
			c-0.2,0.7-0.6,1.4-1.2,2C119.8,13.4,118.6,13.9,117.2,13.9z"/>
		<path class="aod_color_darkgrey" d="M144.1,10.4h0.3c1,0,1.6-0.1,2-0.4c0.4-0.2,0.5-0.7,0.5-1.2c0-0.3-0.1-0.6-0.3-0.9s-0.4-0.4-0.7-0.5
			c-0.3-0.1-0.8-0.2-1.6-0.2h-0.8v2.5h0.3L144.1,10.4z"/>
		<path class="aod_color_darkgrey" d="M62.6,9.4c0-0.2,0.1-0.3,0.1-0.5c0-0.6-0.2-1-0.7-1.3c-0.3-0.2-1-0.3-1.9-0.3h-0.8v2.5c1.5,0,2.6-0.1,3.2-0.2
			C62.4,9.4,62.5,9.4,62.6,9.4z"/>
		<rect x="172.7" y="13.4" class="aod_color_darkgrey" width="5.6" height="2.9"/>
		<rect x="172.7" y="7.2" class="aod_color_darkgrey" width="5.6" height="2.1"/>
		<path class="aod_color_darkgrey" d="M64.9,2.6c-0.4-0.7-1-1.2-1.8-1.5s-2-0.5-3.7-0.5h-3.2v3.7h3V3.6H60c0.9,0,1.6,0.1,1.9,0.3
			c0.3,0.2,0.5,0.4,0.6,0.7c0.2,0.1,0.4,0.1,0.6,0.2c0.8,0.3,1.4,0.8,1.8,1.5C65,6.5,65.1,6.8,65.2,7c0.2-0.5,0.3-1.1,0.3-1.8
			C65.5,4.2,65.3,3.4,64.9,2.6z"/>
		<path class="aod_color_darkgrey" d="M148.3,12.2c-0.4,0.3-0.9,0.6-1.5,0.8l1.8,3.3h1.9L148.3,12.2z"/>
		<path class="aod_color_darkgrey" d="M122.9,2.7c-1.6-1.6-3.5-2.4-5.7-2.4c-1.5,0-2.8,0.4-4.1,1.1c-1.3,0.7-2.3,1.7-3,3S109,7,109,8.5
			c0,0.6,0.1,1.2,0.2,1.8c0.2-0.8,0.5-1.6,0.9-2.3c0.7-1.3,1.7-2.3,3-3c0.1-0.1,0.2-0.1,0.3-0.1c0-0.1,0.1-0.1,0.1-0.2
			c1-1,2.2-1.5,3.7-1.5c1.4,0,2.7,0.5,3.7,1.6c0,0,0.1,0.1,0.1,0.1c0.7,0.4,1.4,0.8,2,1.5c1.2,1.2,1.9,2.5,2.2,4.1
			c0.1-0.6,0.2-1.2,0.2-1.8C125.3,6.2,124.5,4.3,122.9,2.7z"/>
		<rect x="85.7" y="0.6" class="aod_color_darkgrey" width="3" height="3.7"/>
		<rect x="3.6" y="7.2" class="aod_color_darkgrey" width="5.6" height="2.1"/>
		<path class="aod_color_darkgrey" d="M143.4,3.6h0.8c0.8,0,1.3,0.1,1.6,0.2c0.3,0.1,0.5,0.3,0.7,0.5c0.1,0.1,0.1,0.2,0.1,0.3
			c0.2,0.1,0.4,0.1,0.6,0.2c0.7,0.3,1.3,0.8,1.8,1.5c0.1,0.2,0.2,0.5,0.3,0.8c0.2-0.5,0.3-1.2,0.3-1.9c0-1-0.2-1.8-0.7-2.6
			c-0.4-0.7-1-1.2-1.8-1.5c-0.7-0.3-2-0.5-3.7-0.5h-3.2v3.7h3V3.6z"/>
		<rect x="3.6" y="13.4" class="aod_color_darkgrey" width="5.6" height="2.9"/>
		<polygon class="aod_color_darkgrey" points="32.5,9.3 35.8,4.3 36.8,4.3 39.2,0.6 35.8,0.6 32.5,5.7 29.2,0.6 25.8,0.6 28.2,4.3 29.2,4.3 		"/>
		<rect x="88.7" y="13.5" class="aod_color_darkgrey" width="4.4" height="2.9"/>
		<polygon class="aod_color_darkgrey" points="0.7,4.3 3.6,4.3 3.6,3.6 9.3,3.6 9.3,0.6 0.7,0.6 		"/>
		<polygon class="aod_color_darkgrey" points="169.7,4.3 172.7,4.3 172.7,3.6 178.3,3.6 178.3,0.6 169.7,0.6 		"/>
		<polygon class="aod_color_darkgrey" points="29.6,10.1 25.5,16.4 27.9,16.4 30.8,11.9 		"/>
		<polygon class="aod_color_darkgrey" points="35.4,10.1 34.2,11.9 37.1,16.4 39.5,16.4 		"/>
	</g>
</g>
</svg>
