<?xml version="1.0" encoding="utf-8"?>
<!-- Generator: Adobe Illustrator 22.0.1, SVG Export Plug-In . SVG Version: 6.00 Build 0)  -->
<svg version="1.1" id="Layer_1" xmlns="http://www.w3.org/2000/svg" xmlns:xlink="http://www.w3.org/1999/xlink" x="0px" y="0px"
	 viewBox="0 0 304 136" style="enable-background:new 0 0 304 136;" xml:space="preserve">
<g>
	<polygon fill="#CCCCCC" points="299.3,54.4 296.8,52 285.2,40.5 265,40.5 261.4,39 258.8,26.9 247.4,28.8 241.6,15.4 218.5,20.9 
		218.4,20.9 213.7,22.1 206,23.9 196.1,20.6 192.1,33.6 172.1,29.9 87.4,29.9 86.8,29.3 139.5,29.3 143.1,22.1 142.8,22.1 
		143.1,21.5 72.9,5 23.8,28.6 25.2,28.6 23.8,29.3 39,29.3 28.8,33.6 46.9,90.2 49.7,124.2 54,123.6 54.3,128 119.3,113.7 
		119.8,113.6 124.4,113.6 123.3,117.3 127,113.6 171.2,113.6 176.2,112.8 181.2,116.4 182.4,117.3 184.8,116.4 194.2,112.6 
		194.6,110.5 186.2,109.9 194,106.4 199.3,105 205.9,107.7 198.4,106.6 214.6,111.2 238.2,120.8 271.5,104.8 268.7,95 270.6,89.5 
		274.3,89 274.3,89 274.7,88.9 274.7,88.8 276.5,88.6 299.3,54.5 299.3,54.5 299.3,54.4"/>
	<polygon fill="#CCCCCC" points="27.1,54 26.7,54.5 26.4,53.3 22.7,32.6 21.9,33.5 21.8,32.6 18.7,36.4 17.1,31.6 16.6,31.8 16.4,31.2 
		10.1,33.7 14.5,41.6 9.3,48.2 17.9,55.7 4.7,72 21.1,86.3 22.9,96.3 32.6,96.3 36.3,99.6 36.2,99.3 40.5,103.1 40.3,102.2 
		41.3,103.1 	"/>
	<polygon fill="#CCCCCC" points="280.1,88.2 292.5,82.6 294.1,70.5 292.5,68.9"/>
</g>
<path fill="#FFFFFF" d="M52.8,86.7l0-11.7l7.6-2.9V51.4c0,0-4.9,0.6-6,0S48,41.9,48,41.9l1.9-9.3l6.5-5.8l7.3-2.9h8.9l7.5,5l1.8,2.2
	l2.9,2.4l2.6-1.3l75.4,0.4l9.9,0.2l39.8,6.9l-2.4,2.1l-12.9,2.6l0.2,6.9H251l-7.3,22.3l-1.3,17.8l7.9,7.9l-0.2,8.9h-22.5l-7.8-1.3
	V90.6h-32.4l-0.6,15.9l-2.1-0.3l-9.8-32.5l-4.4,5.9l-4.2,11.9l-2.6,3.1l2.7,13.9l-2.7,4l-2.2,1.2H60.6L52.8,86.7z"/>
<polygon points="26.9,7.9 13.8,24.7 14.8,27.8 51.8,11.4 "/>
<path d="M277.6,58.2L277.6,58.2l-0.2-0.1l0-0.1l-10.6-2.7l4.3-14.9h-3.6v-1.6c0-0.9-0.7-1.6-1.6-1.6h-1.8c-0.9,0-1.6,0.7-1.6,1.6
	v1.6h-25.3l-10.4-12.8l-84.2-8.2l-5.3,3.8l-73-10.3L15.7,31.1l25,87.7l140.5-2.4l-10.7-7.8l24,1.9l-0.4,2.1l-9.4,3.8l6.3-0.1
	l12.3,7.5l31.8-6.7l-36.9-10.5l51.4,7.3l0.1,0l6.5-22.5l11.3-1.6v-0.1l0.1,0l10.1-31.4L277.6,58.2z M157.9,33.6h2.4v12.2h-2.4V33.6z
	 M145.8,33.6h9v2.2h-6.5v2.5h4.5v2.2h-4.5v3h6.8v2.2h-9.2V33.6z M128.3,33.6L131,42l2.8-8.4h2l2.8,8.4l2.7-8.4h2.6l-4.2,12.2h-2.1
	l-2.8-8l-2.8,8h-2l-4.2-12.2H128.3z M134.2,96.6c-0.2-0.2-0.4-0.3-0.8-0.3c-0.2,0-0.3,0-0.5,0.1c-0.1,0.1-0.3,0.1-0.4,0.2
	c-0.1,0.1-0.2,0.2-0.2,0.4c-0.1,0.1-0.1,0.3-0.1,0.5v1.9h-0.3v-4.8h0.3v2.1c0.1-0.2,0.3-0.4,0.5-0.5c0.2-0.1,0.4-0.2,0.8-0.2
	c0.2,0,0.4,0,0.6,0.1c0.2,0.1,0.3,0.2,0.4,0.3c0.1,0.1,0.2,0.3,0.3,0.4c0.1,0.2,0.1,0.4,0.1,0.6v2.1h-0.3v-2
	C134.4,97.1,134.3,96.8,134.2,96.6z M119,33.6h2.2l0,0.1l5.3,12.1H124l-1.1-2.5h-5.6l-0.1,0.2h0l-1,2.4h-2.5L119,33.6z M101.9,33.6
	h2.5v6.9c0,2,1,3.1,2.8,3.1c1.8,0,2.8-1.1,2.8-3v-7h2.5v6.9c0,3.5-1.9,5.5-5.3,5.5c-3.3,0-5.2-2-5.2-5.4V33.6z M88,33.6h2.5v4.9H96
	v-4.9h2.5v12.2H96v-4.9h-5.6v4.9H88V33.6z M88.6,94.7c0.2,0,0.4,0,0.6,0.1c0.2,0,0.3,0.1,0.5,0.2c0.1,0.1,0.3,0.1,0.4,0.2
	c0.1,0.1,0.2,0.2,0.4,0.3l-0.2,0.3c-0.1-0.1-0.2-0.2-0.3-0.3c-0.1-0.1-0.2-0.2-0.4-0.2c-0.1-0.1-0.3-0.1-0.4-0.1
	C89,95,88.8,95,88.6,95c-0.3,0-0.5,0.1-0.8,0.2c-0.2,0.1-0.4,0.3-0.6,0.4c-0.2,0.2-0.3,0.4-0.4,0.7c-0.1,0.3-0.1,0.5-0.1,0.8v0
	c0,0.3,0.1,0.6,0.2,0.8c0.1,0.3,0.2,0.5,0.4,0.7c0.2,0.2,0.4,0.3,0.6,0.4c0.2,0.1,0.5,0.2,0.8,0.2c0.3,0,0.6-0.1,0.9-0.2
	c0.2-0.1,0.5-0.3,0.7-0.5l0.2,0.2c-0.1,0.1-0.2,0.2-0.4,0.3c-0.1,0.1-0.3,0.2-0.4,0.3c-0.1,0.1-0.3,0.1-0.5,0.2
	c-0.2,0-0.4,0.1-0.6,0.1c-0.3,0-0.6-0.1-0.9-0.2c-0.3-0.1-0.5-0.3-0.7-0.5c-0.2-0.2-0.4-0.5-0.5-0.8c-0.1-0.3-0.2-0.6-0.2-0.9v0
	c0-0.3,0.1-0.6,0.2-0.9c0.1-0.3,0.3-0.5,0.5-0.8c0.2-0.2,0.4-0.4,0.7-0.5C88,94.8,88.3,94.7,88.6,94.7z M85.6,56.5
	c0.5,0.5,1,1.2,1.3,1.9c0.3,0.7,0.5,1.5,0.5,2.4v22.3c0,0.8-0.2,1.6-0.5,2.4c-0.3,0.7-0.8,1.4-1.3,1.9c-0.5,0.5-1.2,1-1.9,1.3
	c-0.7,0.3-1.5,0.5-2.4,0.5h-1.8c-0.8,0-1.6-0.2-2.4-0.5c-0.7-0.3-1.4-0.8-1.9-1.3c-0.5-0.5-1-1.2-1.3-1.9c-0.3-0.7-0.5-1.5-0.5-2.4
	V60.8c0-0.8,0.2-1.6,0.5-2.4c0.3-0.7,0.8-1.4,1.3-1.9c0.5-0.5,1.2-1,1.9-1.3c0.7-0.3,1.5-0.5,2.4-0.5h1.8c0.8,0,1.6,0.2,2.4,0.5
	C84.4,55.6,85,56,85.6,56.5z M79.6,35.2c-0.1,2-1.6,3.2-1.6,3.2c-2.4,2.4-8.3,5.4-9.7,6.1v0c-0.1,0-0.1,0-0.1,0
	c-0.1-0.1,0-0.2,0-0.2h0c3.8-8.2,8.9-14.4,8.9-14.4S79.8,32.5,79.6,35.2z M68.2,25.6c0.8,0.1,1.6,0.3,1.6,0.3c2.6,0.6,3.3,3,3.3,3
	c0.5,1.3,0,3.1,0,3.1C72.2,36,67.9,42.3,67,43.7l0,0c0,0,0,0.1-0.1,0.1c0,0-0.1,0-0.1-0.1h0C65.3,29.4,68.2,25.6,68.2,25.6z
	 M58.8,29c0,0,0.6-2.4,3.2-3c0,0,1.2-0.3,1.6-0.3c0,0,2.9,3.8,1.5,17.9l0,0c0,0,0,0.1-0.1,0.1c0,0-0.1,0-0.1,0
	c-0.9-1.3-5.2-7.7-6.1-11.5C58.8,32.1,58.3,30.5,58.8,29z M54.8,29.9C54.8,29.9,54.8,29.9,54.8,29.9C54.8,29.9,54.8,29.9,54.8,29.9
	c0.1,0.1,5.2,6.3,8.9,14.5h0c0,0.1,0,0.1,0,0.1c0,0.1-0.1,0-0.1,0c-1.4-0.7-7.3-3.7-9.7-6.1c0,0-1.5-1.2-1.6-3.2
	C52,32.6,54.7,30,54.8,29.9z M50.4,42.4c0,0-1-1.9-0.3-4.3c0,0,8.4,4.5,12.7,7.4l0,0c0,0,0.1,0.1,0,0.1c0,0,0,0.1-0.1,0.1
	c-1.5,0-7.2,0-7.4,0c0,0-0.9,0-1.9-0.4C53.5,45.3,51.5,44.6,50.4,42.4z M52.8,46.8C52.8,46.8,52.8,46.8,52.8,46.8L52.8,46.8l9.6-0.3
	l0.2,0v0c0,0,0,0,0,0c0,0,0.1,0,0.1,0.1c0,0,0,0.1,0,0.1l0,0c-1,0.7-3.9,2.7-5.2,3.1C55.7,50.2,53.9,48.7,52.8,46.8z M67.6,111h-1.4
	v-2.9h-3.3v2.9h-1.4v-7.1h1.4v2.9h3.3v-2.9h1.4V111z M68.4,83.1c0,0.8-0.2,1.6-0.5,2.4c-0.3,0.7-0.8,1.4-1.3,1.9
	c-0.5,0.5-1.2,1-1.9,1.3c-0.7,0.3-1.5,0.5-2.4,0.5h-1.8c-0.8,0-1.6-0.2-2.4-0.5c-0.7-0.3-1.4-0.8-1.9-1.3c-0.5-0.5-1-1.2-1.3-1.9
	c-0.3-0.7-0.5-1.5-0.5-2.4V77c0-0.4,0.2-0.7,0.6-0.9l4.4-1.2c0.4-0.1,0.6,0,0.6,0.5v7.4c0,0.3,0.1,0.6,0.3,0.8
	c0.2,0.2,0.5,0.3,0.8,0.3h0.4c0.3,0,0.6-0.1,0.8-0.3c0.2-0.2,0.3-0.5,0.3-0.8V55.8c0-0.4,0.2-0.7,0.7-0.7h4.3c0.5,0,0.7,0.2,0.7,0.7
	V83.1z M68.9,45.6c0-0.1,0.1-0.1,0.1-0.1l0,0c4.3-2.9,12.7-7.4,12.7-7.4c0.7,2.3-0.2,4.2-0.2,4.2c-1.1,2.4-3.2,3-3.2,3
	c-0.9,0.4-1.7,0.4-1.7,0.4c-0.1,0-6,0-7.6,0v0C68.9,45.7,68.9,45.6,68.9,45.6z M69,46.5c0-0.1,0.1-0.1,0.1-0.1l0,0l9.9,0.3
	c-2.2,3.8-4.8,2.9-4.8,2.9c-1.4-0.4-4.2-2.4-5.2-3.1l0,0C69,46.6,69,46.5,69,46.5z M75.7,107.9c0,2-1.1,3.2-3.1,3.2
	c-1.9,0-3-1.1-3-3.1v-4.1H71v4c0,1.2,0.6,1.8,1.6,1.8c1,0,1.6-0.6,1.6-1.8v-4.1h1.4V107.9z M82.4,111l-0.6-1.5h-3.2l0,0.1l-0.6,1.4
	h-1.5l3.1-7.1h1.3l0,0l3.1,7.1H82.4z M91.5,111h-1.2l-1.6-4.7l-1.6,4.7h-1.2l-2.5-7.1h1.5l1.6,4.9l1.6-4.9h1.2l1.6,4.9l1.6-4.9h1.5
	L91.5,111z M94,99.4h-0.3v-0.6c-0.1,0.1-0.1,0.2-0.2,0.2c-0.1,0.1-0.2,0.1-0.3,0.2c-0.1,0.1-0.2,0.1-0.4,0.1c-0.1,0-0.3,0.1-0.4,0.1
	c-0.2,0-0.3,0-0.5-0.1c-0.2,0-0.3-0.1-0.4-0.2c-0.1-0.1-0.2-0.2-0.3-0.3c-0.1-0.1-0.1-0.3-0.1-0.5v0c0-0.2,0-0.3,0.1-0.5
	c0.1-0.1,0.2-0.3,0.3-0.3c0.1-0.1,0.3-0.2,0.5-0.2c0.2,0,0.4-0.1,0.6-0.1c0.2,0,0.4,0,0.6,0c0.2,0,0.3,0.1,0.5,0.1v-0.1
	c0-0.3-0.1-0.6-0.3-0.8c-0.2-0.2-0.5-0.3-0.8-0.3c-0.2,0-0.4,0-0.6,0.1c-0.2,0.1-0.3,0.1-0.5,0.2l-0.1-0.3c0.2-0.1,0.4-0.2,0.6-0.2
	c0.2-0.1,0.4-0.1,0.6-0.1c0.5,0,0.8,0.1,1.1,0.4c0.2,0.2,0.3,0.5,0.3,1V99.4z M100.5,111h-5.4v-7.1h5.2v1.3h-3.8v1.5h2.6v1.3h-2.6
	v1.8h3.9V111z M95.7,96.5c0.1-0.1,0.2-0.2,0.3-0.3c0.1-0.1,0.2-0.1,0.4-0.2c0.1,0,0.3-0.1,0.5-0.1c0.2,0,0.4,0,0.6,0.1
	c0.2,0.1,0.4,0.2,0.5,0.3c0.2,0.1,0.3,0.3,0.4,0.6c0.1,0.2,0.1,0.5,0.1,0.7v0c0,0.3,0,0.5-0.1,0.7c-0.1,0.2-0.2,0.4-0.4,0.6
	c-0.2,0.2-0.3,0.3-0.5,0.3c-0.2,0.1-0.4,0.1-0.6,0.1c-0.2,0-0.3,0-0.5-0.1c-0.1,0-0.3-0.1-0.4-0.2c-0.1-0.1-0.2-0.2-0.3-0.3
	c-0.1-0.1-0.2-0.2-0.2-0.3v1.8h-0.3V96h0.3v0.8C95.5,96.7,95.6,96.6,95.7,96.5z M101.2,96.3H100v2.2c0,0.2,0.1,0.4,0.2,0.5
	c0.1,0.1,0.3,0.1,0.5,0.1c0.1,0,0.2,0,0.2,0c0.1,0,0.2,0,0.3-0.1v0.3c-0.1,0-0.2,0.1-0.3,0.1c-0.1,0-0.2,0-0.3,0
	c-0.1,0-0.3,0-0.4-0.1c-0.1,0-0.2-0.1-0.3-0.2c-0.1-0.1-0.2-0.2-0.2-0.3c0-0.1-0.1-0.3-0.1-0.4v-2.2h-0.5V96h0.5V95h0.3V96h1.2V96.3
	z M103.6,111h-1.4v-7.1h1.4V111z M104.9,99.4h-0.3v-0.6c-0.1,0.2-0.3,0.4-0.5,0.5c-0.2,0.1-0.4,0.2-0.8,0.2c-0.2,0-0.4,0-0.6-0.1
	c-0.2-0.1-0.3-0.2-0.4-0.3c-0.1-0.1-0.2-0.3-0.3-0.4c-0.1-0.2-0.1-0.4-0.1-0.6V96h0.3v2c0,0.3,0.1,0.6,0.3,0.8
	c0.2,0.2,0.4,0.3,0.8,0.3c0.2,0,0.3,0,0.5-0.1c0.1-0.1,0.3-0.1,0.4-0.2c0.1-0.1,0.2-0.2,0.2-0.4c0.1-0.1,0.1-0.3,0.1-0.5V96h0.3
	V99.4z M103.8,88.4c-0.7,0.3-1.5,0.5-2.4,0.5h-7.2c-0.5,0-0.7-0.2-0.7-0.7V55.8c0-0.4,0.2-0.7,0.7-0.7h7.2c0.8,0,1.6,0.2,2.4,0.5
	c0.7,0.3,1.4,0.8,1.9,1.3c0.5,0.5,1,1.2,1.3,1.9c0.3,0.7,0.5,1.5,0.5,2.4V66c0,1.5-0.5,2.7-1.4,3.7c-0.5,0.5-1.1,0.9-1.7,1.3
	c0.7,0.3,1.3,0.6,1.7,1.1c0.4,0.5,0.8,1,1,1.6c0.2,0.6,0.3,1.3,0.3,2v7.1c0,0.8-0.2,1.6-0.5,2.4c-0.3,0.7-0.8,1.4-1.3,1.9
	C105.2,87.6,104.6,88.1,103.8,88.4z M108,96.4L108,96.4c-0.2,0-0.4,0-0.6,0.1c-0.2,0.1-0.3,0.2-0.5,0.3c-0.1,0.1-0.2,0.3-0.3,0.5
	c-0.1,0.2-0.1,0.5-0.1,0.7v1.4h-0.3V96h0.3v1c0.1-0.1,0.1-0.3,0.3-0.4c0.1-0.1,0.2-0.2,0.3-0.3c0.1-0.1,0.3-0.2,0.4-0.2
	c0.2,0,0.3-0.1,0.5-0.1V96.4z M108.6,97.7L108.6,97.7c0-0.3,0-0.5,0.1-0.7c0.1-0.2,0.2-0.4,0.3-0.6c0.1-0.2,0.3-0.3,0.5-0.4
	c0.2-0.1,0.4-0.1,0.6-0.1c0.2,0,0.5,0,0.6,0.1c0.2,0.1,0.4,0.2,0.5,0.4c0.1,0.2,0.2,0.3,0.3,0.6c0.1,0.2,0.1,0.4,0.1,0.7
	c0,0,0,0.1,0,0.1c0,0,0,0,0,0.1h-2.8c0,0.2,0.1,0.4,0.1,0.6c0.1,0.2,0.2,0.3,0.3,0.4c0.1,0.1,0.3,0.2,0.4,0.3
	c0.2,0.1,0.3,0.1,0.5,0.1c0.3,0,0.5-0.1,0.7-0.2c0.2-0.1,0.3-0.2,0.5-0.4l0.2,0.2c-0.2,0.2-0.4,0.3-0.6,0.5
	c-0.2,0.1-0.5,0.2-0.8,0.2c-0.2,0-0.4,0-0.6-0.1c-0.2-0.1-0.4-0.2-0.5-0.4c-0.2-0.2-0.3-0.3-0.4-0.6C108.6,98.2,108.6,98,108.6,97.7
	z M113,107.3c-0.2,0.4-0.5,0.6-0.9,0.8c-0.4,0.2-0.8,0.3-1.3,0.3c-0.3,0-0.6,0-1-0.1v2.8h-0.9V104h1.8c0.9,0,1.5,0.2,2,0.5
	c0.5,0.4,0.7,0.9,0.7,1.5C113.3,106.5,113.2,106.9,113,107.3z M113.5,99.4c-0.2-0.1-0.4-0.2-0.5-0.3c-0.2-0.1-0.3-0.3-0.4-0.6
	c-0.1-0.2-0.1-0.5-0.1-0.7v0c0-0.3,0-0.5,0.1-0.7c0.1-0.2,0.2-0.4,0.4-0.6c0.2-0.2,0.3-0.3,0.5-0.3c0.2-0.1,0.4-0.1,0.6-0.1
	c0.2,0,0.3,0,0.5,0.1c0.1,0,0.3,0.1,0.4,0.2c0.1,0.1,0.2,0.2,0.3,0.3c0.1,0.1,0.2,0.2,0.2,0.3v-2.2h0.3v4.8h-0.3v-0.8
	c-0.1,0.1-0.2,0.2-0.2,0.3c-0.1,0.1-0.2,0.2-0.3,0.3c-0.1,0.1-0.2,0.1-0.4,0.2c-0.1,0-0.3,0.1-0.5,0.1
	C113.9,99.5,113.7,99.5,113.5,99.4z M118.7,111.1h-4.6v-0.7l0.8-0.7c0.7-0.7,1.2-1.2,1.6-1.6c0.4-0.4,0.6-0.7,0.8-1.1
	c0.2-0.4,0.3-0.7,0.3-1.1c0-0.4-0.1-0.8-0.4-1c-0.3-0.2-0.6-0.3-1-0.3c-0.3,0-0.6,0.1-0.9,0.2c-0.3,0.1-0.5,0.3-0.8,0.6l-0.4-0.7
	c0.3-0.3,0.6-0.5,0.9-0.6c0.4-0.2,0.8-0.2,1.2-0.2c0.4,0,0.8,0.1,1.1,0.2c0.3,0.2,0.6,0.4,0.8,0.7c0.2,0.3,0.3,0.7,0.3,1.1
	c0,0.4-0.1,0.8-0.3,1.2c-0.2,0.4-0.5,0.8-0.9,1.2c-0.4,0.4-0.9,0.9-1.6,1.5l-0.4,0.4l3.5,0L118.7,111.1z M119.3,99.4H119v-4.8h0.3
	v2.2c0.1-0.1,0.2-0.2,0.2-0.3c0.1-0.1,0.2-0.2,0.3-0.3c0.1-0.1,0.2-0.1,0.4-0.2c0.1,0,0.3-0.1,0.5-0.1c0.2,0,0.4,0,0.6,0.1
	c0.2,0.1,0.4,0.2,0.5,0.3c0.2,0.1,0.3,0.3,0.4,0.6c0.1,0.2,0.1,0.5,0.1,0.7v0c0,0.3,0,0.5-0.1,0.7c-0.1,0.2-0.2,0.4-0.4,0.6
	c-0.2,0.2-0.3,0.3-0.5,0.3c-0.2,0.1-0.4,0.1-0.6,0.1c-0.2,0-0.3,0-0.5-0.1c-0.1,0-0.3-0.1-0.4-0.2c-0.1-0.1-0.2-0.2-0.3-0.3
	c-0.1-0.1-0.2-0.2-0.2-0.3V99.4z M123.5,110.2c-0.4,0.6-1,1-1.8,1c-0.8,0-1.4-0.3-1.7-0.9c-0.4-0.6-0.6-1.5-0.6-2.7
	c0-1.2,0.2-2.1,0.6-2.7c0.4-0.6,1-1,1.8-1c0.8,0,1.4,0.3,1.7,0.9c0.4,0.6,0.6,1.5,0.6,2.7C124.1,108.6,123.9,109.5,123.5,110.2z
	 M124.9,99.5c-0.1,0.4-0.3,0.6-0.5,0.7c-0.2,0.1-0.4,0.2-0.6,0.2c-0.1,0-0.2,0-0.3,0c-0.1,0-0.2-0.1-0.3-0.1l0.1-0.3
	c0.1,0,0.2,0.1,0.3,0.1c0.1,0,0.2,0,0.3,0c0.1,0,0.2,0,0.2,0c0.1,0,0.1-0.1,0.2-0.1c0.1-0.1,0.1-0.1,0.2-0.2
	c0.1-0.1,0.1-0.2,0.2-0.4L123,96h0.4l1.4,3l1.2-3h0.4L124.9,99.5z M127.4,83.1c0,0.8-0.2,1.6-0.5,2.4c-0.3,0.7-0.8,1.4-1.3,1.9
	c-0.5,0.5-1.2,1-1.9,1.3c-0.7,0.3-1.5,0.5-2.4,0.5h-1.8c-0.8,0-1.6-0.2-2.4-0.5c-0.7-0.3-1.4-0.8-1.9-1.3c-0.5-0.5-1-1.2-1.3-1.9
	c-0.3-0.7-0.5-1.5-0.5-2.4V55.8c0-0.4,0.2-0.7,0.7-0.7h4.3c0.5,0,0.7,0.2,0.7,0.7v27.1c0,0.3,0.1,0.6,0.3,0.8
	c0.2,0.2,0.5,0.3,0.8,0.3h0.4c0.3,0,0.6-0.1,0.8-0.3c0.2-0.2,0.3-0.5,0.3-0.8V55.8c0-0.4,0.2-0.7,0.7-0.7h4.3c0.4,0,0.7,0.2,0.7,0.7
	V83.1z M128,112.4h-0.2v-9.8h0.2V112.4z M130.9,96.3h-1.2v2.2c0,0.2,0.1,0.4,0.2,0.5c0.1,0.1,0.3,0.1,0.5,0.1c0.1,0,0.2,0,0.2,0
	c0.1,0,0.2,0,0.3-0.1v0.3c-0.1,0-0.2,0.1-0.3,0.1c-0.1,0-0.2,0-0.3,0c-0.1,0-0.3,0-0.4-0.1c-0.1,0-0.2-0.1-0.3-0.2
	c-0.1-0.1-0.2-0.2-0.2-0.3c0-0.1-0.1-0.3-0.1-0.4v-2.2h-0.5V96h0.5V95h0.3V96h1.2V96.3z M135.7,107.3c-0.2,0.4-0.5,0.6-0.9,0.8
	c-0.4,0.2-0.8,0.3-1.3,0.3c-0.3,0-0.6,0-1-0.1v2.8h-0.9V104h1.8c0.9,0,1.5,0.2,2,0.5c0.5,0.4,0.7,0.9,0.7,1.5
	C136,106.5,135.9,106.9,135.7,107.3z M136.2,99c-0.2-0.2-0.3-0.3-0.4-0.6c-0.1-0.2-0.1-0.5-0.1-0.7v0c0-0.2,0-0.5,0.1-0.7
	c0.1-0.2,0.2-0.4,0.3-0.6c0.1-0.2,0.3-0.3,0.5-0.4c0.2-0.1,0.4-0.1,0.6-0.1c0.2,0,0.5,0,0.6,0.1c0.2,0.1,0.4,0.2,0.5,0.4
	c0.1,0.2,0.2,0.3,0.3,0.6c0.1,0.2,0.1,0.4,0.1,0.7c0,0,0,0.1,0,0.1c0,0,0,0,0,0.1H136c0,0.2,0.1,0.4,0.1,0.6
	c0.1,0.2,0.2,0.3,0.3,0.4c0.1,0.1,0.3,0.2,0.4,0.3c0.2,0.1,0.3,0.1,0.5,0.1c0.3,0,0.5-0.1,0.7-0.2c0.2-0.1,0.3-0.2,0.5-0.4l0.2,0.2
	c-0.2,0.2-0.4,0.3-0.6,0.5c-0.2,0.1-0.5,0.2-0.8,0.2c-0.2,0-0.4,0-0.6-0.1C136.5,99.3,136.3,99.2,136.2,99z M141.4,111.1h-4.6v-0.7
	l0.8-0.7c0.7-0.7,1.2-1.2,1.6-1.6c0.4-0.4,0.6-0.7,0.8-1.1c0.2-0.4,0.3-0.7,0.3-1.1c0-0.4-0.1-0.8-0.4-1c-0.3-0.2-0.6-0.3-1-0.3
	c-0.3,0-0.6,0.1-0.9,0.2c-0.3,0.1-0.5,0.3-0.8,0.6l-0.4-0.7c0.3-0.3,0.6-0.5,0.9-0.6c0.4-0.2,0.8-0.2,1.2-0.2c0.4,0,0.8,0.1,1.1,0.2
	c0.3,0.2,0.6,0.4,0.8,0.7c0.2,0.3,0.3,0.7,0.3,1.1c0,0.4-0.1,0.8-0.3,1.2c-0.2,0.4-0.5,0.8-0.9,1.2c-0.4,0.4-0.9,0.9-1.6,1.5
	l-0.4,0.4l3.5,0L141.4,111.1z M146.2,110.2c-0.4,0.6-1,1-1.8,1c-0.8,0-1.4-0.3-1.7-0.9c-0.4-0.6-0.6-1.5-0.6-2.7
	c0-1.2,0.2-2.1,0.6-2.7c0.4-0.6,1-1,1.8-1c0.8,0,1.4,0.3,1.7,0.9c0.4,0.6,0.6,1.5,0.6,2.7C146.8,108.6,146.6,109.5,146.2,110.2z
	 M147.4,88.9H143c-0.2,0-0.4-0.1-0.6-0.2c-0.2-0.1-0.3-0.3-0.4-0.5l-3.5-11.8v12.5l0-0.5c-0.1,0.3-0.3,0.5-0.6,0.5h-4.3
	c-0.5,0-0.7-0.2-0.7-0.7V55.8c0-0.4,0.2-0.7,0.7-0.7h7.2c0.8,0,1.6,0.2,2.4,0.5c0.7,0.3,1.4,0.8,1.9,1.3c0.5,0.5,1,1.2,1.3,1.9
	c0.3,0.7,0.5,1.5,0.5,2.4V69c0,1.2-0.3,2.3-0.9,3.2c-0.6,0.9-1.4,1.7-2.4,2.2l4.3,13.8C148,88.6,147.8,88.9,147.4,88.9z
	 M154.7,107.3c-0.2,0.4-0.5,0.6-0.9,0.8c-0.4,0.2-0.8,0.3-1.3,0.3c-0.3,0-0.6,0-1-0.1v2.8h-0.9V104h1.8c0.9,0,1.5,0.2,2,0.5
	c0.5,0.4,0.7,0.9,0.7,1.5C155,106.5,154.9,106.9,154.7,107.3z M158.7,106.6c-0.1,0-0.3,0-0.4,0c-0.3,0-0.5,0.1-0.8,0.2
	c-0.2,0.2-0.5,0.4-0.7,0.8v3.5h-0.9v-3.9c0-0.3,0-0.7,0-1.3h0.8c0,0.1,0,0.3,0.1,0.5c0,0.2,0,0.4,0,0.5c0.1-0.2,0.3-0.4,0.4-0.6
	c0.1-0.2,0.3-0.3,0.5-0.4c0.2-0.1,0.4-0.1,0.6-0.1c0.2,0,0.3,0,0.5,0.1L158.7,106.6z M163.4,109.9c-0.2,0.4-0.5,0.7-0.9,0.9
	c-0.4,0.2-0.8,0.3-1.3,0.3c-0.5,0-0.9-0.1-1.3-0.3c-0.4-0.2-0.7-0.5-0.9-0.9c-0.2-0.4-0.3-0.9-0.3-1.4c0-0.6,0.1-1.1,0.3-1.5
	c0.2-0.4,0.5-0.7,0.9-1c0.4-0.2,0.8-0.3,1.3-0.3c0.5,0,0.9,0.1,1.3,0.3c0.4,0.2,0.7,0.5,0.9,1c0.2,0.4,0.3,0.9,0.3,1.4
	C163.7,109,163.6,109.5,163.4,109.9z M167.2,62.4c0,0.4-0.2,0.7-0.6,0.9l-4.4,1.6c-0.4,0.1-0.6,0-0.6-0.5v-3.3
	c0-0.3-0.1-0.6-0.3-0.8c-0.2-0.2-0.5-0.3-0.8-0.3H160c-0.3,0-0.6,0.1-0.8,0.3c-0.2,0.2-0.3,0.5-0.3,0.8v21.8c0,0.3,0.1,0.6,0.3,0.8
	c0.2,0.2,0.5,0.3,0.8,0.3h0.4c0.3,0,0.6-0.1,0.8-0.3c0.2-0.2,0.3-0.5,0.3-0.8v-8.6h-1.4v-5.5h6.3c0.4,0,0.7,0.2,0.7,0.7v13.7
	c0,0.8-0.2,1.6-0.5,2.4c-0.3,0.7-0.8,1.4-1.3,1.9c-0.5,0.5-1.2,1-1.9,1.3c-0.7,0.3-1.5,0.5-2.4,0.5h-1.8c-0.8,0-1.6-0.2-2.4-0.5
	c-0.7-0.3-1.4-0.8-1.9-1.3c-0.5-0.5-1-1.2-1.3-1.9c-0.3-0.7-0.5-1.5-0.5-2.4V60.8c0-0.8,0.2-1.6,0.5-2.4c0.3-0.7,0.8-1.4,1.3-1.9
	c0.5-0.5,1.2-1,1.9-1.3c0.7-0.3,1.5-0.5,2.4-0.5h1.8c0.8,0,1.6,0.2,2.4,0.5c0.7,0.3,1.4,0.8,1.9,1.3c0.5,0.5,1,1.2,1.3,1.9
	c0.3,0.7,0.5,1.5,0.5,2.4V62.4z M191.3,40.4v1.7c0,0.9-0.7,1.6-1.6,1.6h-1.8c-0.9,0-1.6-0.7-1.6-1.6v-1.7h-4.6l4,64.4l-13.1-70.1
	l14,2.2c0.3-0.4,0.7-0.6,1.2-0.6h1.8c0.8,0,1.4,0.6,1.6,1.3l18.8,2.9H191.3z M212.5,82c0,0.9-0.2,1.7-0.5,2.4
	c-0.3,0.8-0.8,1.4-1.3,2c-0.6,0.6-1.2,1-2,1.3c-0.8,0.3-1.6,0.5-2.4,0.5h-7.4c-0.5,0-0.7-0.2-0.7-0.7V54.4c0-0.5,0.2-0.7,0.7-0.7
	h7.4c0.9,0,1.7,0.2,2.4,0.5c0.8,0.3,1.4,0.8,2,1.3c0.6,0.6,1,1.2,1.3,2c0.3,0.8,0.5,1.6,0.5,2.4V82z M224.9,102h-2.1v1.6h2.1v1.7
	h-3.7v-4.9h3.7V102z M229.5,107h-1.6v-1.6h-2.1v-1.7h2.1V102h-2.1v-1.7h3.7V107z M229.3,88.2h-4.5c-0.4,0-0.7-0.2-0.7-0.7l-0.4-5.3
	h-3l-0.4,5.3c-0.1,0.5-0.3,0.7-0.7,0.7h-4.5c-0.5,0-0.7-0.2-0.6-0.7l3.7-33.1c0.1-0.5,0.3-0.7,0.8-0.7h6.5c0.5,0,0.7,0.2,0.8,0.7
	l3.7,33.1C230,88,229.8,88.2,229.3,88.2z M239.4,107h-1.7v-1.7h-6.6v-5h1.7v3.3h5v-3.3h1.7V107z M240.5,88.2H236
	c-0.5,0-0.7-0.2-0.7-0.7V74.8l-5.7-20.4c-0.1-0.2,0-0.3,0.1-0.5c0.1-0.1,0.2-0.2,0.4-0.2h5.2c0.5,0,0.7,0.2,0.8,0.7l2,12.4h0.2
	l2-12.4c0.1-0.5,0.3-0.7,0.8-0.7h5.2c0.2,0,0.3,0.1,0.4,0.2c0.1,0.1,0.1,0.3,0.1,0.5l-5.7,20.4v12.7C241.1,88,240.9,88.2,240.5,88.2
	z M249.3,107l-2.5,0l2.5-2.5L249.3,107z M249.3,102l-5,5h-2.5l5-5H241v-1.7h8.3V102z"/>
<path d="M111.3,97.1c-0.1-0.2-0.1-0.3-0.2-0.4c-0.1-0.1-0.2-0.2-0.4-0.3c-0.1-0.1-0.3-0.1-0.5-0.1c-0.2,0-0.3,0-0.5,0.1
	c-0.1,0.1-0.3,0.2-0.4,0.3c-0.1,0.1-0.2,0.3-0.3,0.4c-0.1,0.2-0.1,0.3-0.1,0.5h2.5C111.4,97.4,111.3,97.2,111.3,97.1z"/>
<path d="M144.5,104.6c-1,0-1.5,1-1.5,3c0,0.9,0.1,1.6,0.3,2.1c0.2,0.5,0.6,0.7,1.1,0.7c0.5,0,0.9-0.3,1.1-0.8
	c0.2-0.5,0.4-1.2,0.4-2.2c0-0.9-0.1-1.6-0.3-2.1C145.3,104.9,145,104.6,144.5,104.6z"/>
<path d="M100.8,73.7h-1.5v10h1.5c0.3,0,0.6-0.1,0.8-0.3c0.2-0.2,0.3-0.5,0.3-0.8v-7.7c0-0.3-0.1-0.6-0.3-0.8
	C101.3,73.8,101.1,73.7,100.8,73.7z"/>
<path d="M153.6,105.1c-0.3-0.2-0.7-0.3-1.3-0.3h-0.8v2.8c0.3,0.1,0.6,0.1,0.8,0.1c0.6,0,1-0.1,1.3-0.4c0.3-0.3,0.5-0.7,0.5-1.1
	C154.1,105.6,153.9,105.3,153.6,105.1z"/>
<path d="M120.2,99.1c0.2,0.1,0.3,0.1,0.5,0.1c0.2,0,0.4,0,0.5-0.1c0.2-0.1,0.3-0.2,0.4-0.3c0.1-0.1,0.2-0.3,0.3-0.5
	c0.1-0.2,0.1-0.4,0.1-0.6v0c0-0.2,0-0.4-0.1-0.6c-0.1-0.2-0.2-0.3-0.3-0.5c-0.1-0.1-0.3-0.2-0.4-0.3c-0.2-0.1-0.3-0.1-0.5-0.1
	c-0.2,0-0.3,0-0.5,0.1c-0.2,0.1-0.3,0.2-0.4,0.3c-0.1,0.1-0.2,0.3-0.3,0.5c-0.1,0.2-0.1,0.4-0.1,0.6v0c0,0.2,0,0.4,0.1,0.6
	c0.1,0.2,0.2,0.3,0.3,0.5C119.9,98.9,120,99,120.2,99.1z"/>
<path d="M134.7,105c-0.3-0.2-0.7-0.3-1.3-0.3h-0.8v2.8c0.3,0.1,0.6,0.1,0.8,0.1c0.6,0,1-0.1,1.3-0.4c0.3-0.3,0.5-0.7,0.5-1.1
	C135.1,105.6,134.9,105.3,134.7,105z"/>
<path d="M112,105c-0.3-0.2-0.7-0.3-1.3-0.3h-0.8v2.8c0.3,0.1,0.6,0.1,0.8,0.1c0.6,0,1-0.1,1.3-0.4c0.3-0.3,0.5-0.7,0.5-1.1
	C112.4,105.6,112.3,105.3,112,105z"/>
<path d="M121.8,104.6c-1,0-1.5,1-1.5,3c0,0.9,0.1,1.6,0.3,2.1c0.2,0.5,0.6,0.7,1.1,0.7c0.5,0,0.9-0.3,1.1-0.8
	c0.2-0.5,0.4-1.2,0.4-2.2c0-0.9-0.1-1.6-0.3-2.1C122.7,104.9,122.3,104.6,121.8,104.6z"/>
<path d="M115.1,98.8c0.1-0.1,0.2-0.3,0.3-0.5c0.1-0.2,0.1-0.4,0.1-0.6v0c0-0.2,0-0.4-0.1-0.6c-0.1-0.2-0.2-0.3-0.3-0.5
	c-0.1-0.1-0.3-0.2-0.4-0.3c-0.2-0.1-0.3-0.1-0.5-0.1c-0.2,0-0.4,0-0.5,0.1c-0.2,0.1-0.3,0.2-0.4,0.3c-0.1,0.1-0.2,0.3-0.3,0.5
	c-0.1,0.2-0.1,0.4-0.1,0.6v0c0,0.2,0,0.4,0.1,0.6c0.1,0.2,0.2,0.3,0.3,0.5c0.1,0.1,0.3,0.2,0.4,0.3c0.2,0.1,0.3,0.1,0.5,0.1
	c0.2,0,0.3,0,0.5-0.1C114.8,99,114.9,98.9,115.1,98.8z"/>
<path d="M138.4,97.1c-0.1-0.2-0.1-0.3-0.2-0.4c-0.1-0.1-0.2-0.2-0.4-0.3c-0.1-0.1-0.3-0.1-0.5-0.1c-0.2,0-0.3,0-0.5,0.1
	c-0.1,0.1-0.3,0.2-0.4,0.3c-0.1,0.1-0.2,0.3-0.3,0.4s-0.1,0.3-0.1,0.5h2.5C138.5,97.4,138.4,97.2,138.4,97.1z"/>
<path d="M80.2,59.9c-0.3,0-0.6,0.1-0.8,0.3c-0.2,0.2-0.3,0.5-0.3,0.8v21.8c0,0.3,0.1,0.6,0.3,0.8c0.2,0.2,0.5,0.3,0.8,0.3h0.4
	c0.3,0,0.6-0.1,0.8-0.3c0.2-0.2,0.3-0.5,0.3-0.8V61.1c0-0.3-0.1-0.6-0.3-0.8c-0.2-0.2-0.5-0.3-0.8-0.3H80.2z"/>
<path d="M95.4,97.7c0,0.2,0,0.4,0.1,0.6c0.1,0.2,0.2,0.3,0.3,0.5c0.1,0.1,0.3,0.2,0.4,0.3c0.2,0.1,0.3,0.1,0.5,0.1
	c0.2,0,0.4,0,0.5-0.1c0.2-0.1,0.3-0.2,0.4-0.3c0.1-0.1,0.2-0.3,0.3-0.5c0.1-0.2,0.1-0.4,0.1-0.6v0c0-0.2,0-0.4-0.1-0.6
	c-0.1-0.2-0.2-0.3-0.3-0.5c-0.1-0.1-0.3-0.2-0.4-0.3c-0.2-0.1-0.3-0.1-0.5-0.1c-0.2,0-0.3,0-0.5,0.1c-0.2,0.1-0.3,0.2-0.4,0.3
	c-0.1,0.1-0.2,0.3-0.3,0.5C95.5,97.3,95.4,97.5,95.4,97.7L95.4,97.7z"/>
<polygon points="222,63.3 221.1,76.7 223.3,76.7 222.4,63.3 "/>
<path d="M205.5,59h-1.6v23.9h1.6c0.3,0,0.6-0.1,0.8-0.3c0.2-0.2,0.3-0.5,0.3-0.8V60.2c0-0.3-0.1-0.6-0.3-0.8
	C206.1,59.1,205.8,59,205.5,59z"/>
<polygon points="80.1,105.7 79.1,108.1 79.1,108.1 79.1,108.3 81.2,108.3 81.2,108.1 81.2,108.1 "/>
<path d="M92.5,97.6c-0.4,0-0.6,0.1-0.8,0.2c-0.2,0.1-0.3,0.3-0.3,0.6v0c0,0.1,0,0.2,0.1,0.3c0.1,0.1,0.1,0.2,0.2,0.2
	c0.1,0.1,0.2,0.1,0.3,0.2c0.1,0,0.2,0.1,0.4,0.1c0.2,0,0.3,0,0.5-0.1c0.2-0.1,0.3-0.1,0.4-0.2c0.1-0.1,0.2-0.2,0.3-0.3
	c0.1-0.1,0.1-0.3,0.1-0.4v-0.4c-0.1,0-0.3-0.1-0.5-0.1C93,97.6,92.8,97.6,92.5,97.6z"/>
<path d="M140.1,60.3h-1.5V70h1.5c0.3,0,0.6-0.1,0.8-0.3c0.2-0.2,0.3-0.5,0.3-0.8v-7.4c0-0.3-0.1-0.6-0.3-0.8
	C140.7,60.4,140.4,60.3,140.1,60.3z"/>
<path d="M100.8,60.3h-1.5v8.2h1.5c0.3,0,0.6-0.1,0.8-0.3c0.2-0.2,0.3-0.5,0.3-0.8v-5.9c0-0.3-0.1-0.6-0.3-0.8
	C101.3,60.4,101.1,60.3,100.8,60.3z"/>
<path d="M161.3,106.4c-0.5,0-0.9,0.2-1.1,0.5c-0.3,0.4-0.4,0.9-0.4,1.5c0,0.4,0.1,0.8,0.2,1.1c0.1,0.3,0.3,0.5,0.5,0.7
	c0.2,0.2,0.5,0.2,0.9,0.2c0.5,0,0.9-0.2,1.1-0.5c0.2-0.3,0.4-0.8,0.4-1.4c0-0.6-0.1-1.1-0.4-1.5
	C162.1,106.6,161.8,106.4,161.3,106.4z"/>
<polygon points="122,41 121.8,40.8 121.9,40.8 120.1,36.7 118.3,40.8 118.3,40.8 118.2,41 "/>
</svg>
