<?xml version="1.0" encoding="utf-8"?>
<!-- Generator: Adobe Illustrator 22.0.1, SVG Export Plug-In . SVG Version: 6.00 Build 0)  -->
<svg version="1.1" id="Layer_1" xmlns="http://www.w3.org/2000/svg" xmlns:xlink="http://www.w3.org/1999/xlink" x="0px" y="0px"
	 viewBox="0 0 230 41" style="enable-background:new 0 0 230 41;" xml:space="preserve">
<style type="text/css">
	.st0{fill:#CCCCCC;}
	.st1{fill:#D55554;}
</style>
<path  fill="#1F4360;" d="M0.6,5.5v35.1h228.8V5.5H0.6z M25,27.8c0,1.8-0.6,3.2-1.8,4.4s-2.8,1.7-4.8,1.7c-1.5,0-2.9-0.4-4-1.1
	s-1.8-2.3-2-4.7l3.4-0.8c0.5,1.8,1.4,2.7,2.7,2.7c0.7,0,1.3-0.2,1.8-0.6C20.7,29,21,28.5,21,28c0-0.5-0.1-1-0.4-1.6
	c-0.2-0.6-1-1.4-2.2-2.5c-2.6-1.7-4.2-3-4.9-4.1s-1-2.1-1-3.1c0-1.5,0.6-2.8,1.7-3.9s2.6-1.6,4.2-1.6c1.1,0,2.1,0.2,3.1,0.7
	s2,1.4,3.2,2.7L21.9,17c-1.3-1.2-2.5-1.9-3.6-1.9c-0.5,0-1,0.1-1.3,0.4s-0.6,0.6-0.6,1c0,0.4,0,0.8,0.1,1.1c0.3,0.7,1.4,1.6,3.4,2.7
	c1.7,1.2,2.7,1.9,3.1,2.2c0.9,1,1.5,1.8,1.8,2.6C25.1,26,25.2,26.9,25,27.8z M61.6,33.3L55,23.7v9.6h-4.2V11.7H55v7.4l5.9-7.4h5
	l-7.6,9.6l8.3,12H61.6z M97.2,33.3h-4.1V11.7h4.1V33.3z M138.8,33.3h-10.1V11.7h4.1v17.7h6V33.3z M177.6,33.3h-10.1V11.7h4.1v17.7h6
	V33.3z M218.1,27.8c0,1.8-0.6,3.2-1.8,4.4s-2.8,1.7-4.8,1.7c-1.5,0-2.9-0.4-4-1.1s-1.8-2.3-2-4.7l3.4-0.8c0.5,1.8,1.4,2.7,2.7,2.7
	c0.7,0,1.3-0.2,1.8-0.6c0.5-0.4,0.7-0.9,0.7-1.4c0-0.5-0.1-1-0.4-1.6c-0.2-0.6-1-1.4-2.2-2.5c-2.6-1.7-4.2-3-4.9-4.1s-1-2.1-1-3.1
	c0-1.5,0.6-2.8,1.7-3.9s2.6-1.6,4.2-1.6c1.1,0,2.1,0.2,3.1,0.7c1,0.5,2,1.4,3.2,2.7L215,17c-1.3-1.2-2.5-1.9-3.6-1.9
	c-0.5,0-1,0.1-1.3,0.4c-0.3,0.3-0.6,0.6-0.6,1c0,0.4,0,0.8,0.1,1.1c0.3,0.7,1.4,1.6,3.4,2.7c1.7,1.2,2.7,1.9,3.1,2.2
	c0.9,1,1.5,1.8,1.8,2.6S218.2,26.9,218.1,27.8z"/>
<path class="st1" d="M0.6,0.5v35.1h228.8V0.5H0.6z M25,22.8c0,1.8-0.6,3.2-1.8,4.4s-2.8,1.7-4.8,1.7c-1.5,0-2.9-0.4-4-1.1
	c-1.1-0.8-1.8-2.3-2-4.7l3.4-0.8c0.5,1.8,1.4,2.7,2.7,2.7c0.7,0,1.3-0.2,1.8-0.6C20.7,24,21,23.5,21,23c0-0.5-0.1-1-0.4-1.6
	c-0.2-0.6-1-1.4-2.2-2.5c-2.6-1.7-4.2-3-4.9-4.1s-1-2.1-1-3.1c0-1.5,0.6-2.8,1.7-3.9s2.6-1.6,4.2-1.6c1.1,0,2.1,0.2,3.1,0.7
	s2,1.4,3.2,2.7L21.9,12c-1.3-1.2-2.5-1.9-3.6-1.9c-0.5,0-1,0.1-1.3,0.4s-0.6,0.6-0.6,1c0,0.4,0,0.8,0.1,1.1c0.3,0.7,1.4,1.6,3.4,2.7
	c1.7,1.2,2.7,1.9,3.1,2.2c0.9,1,1.5,1.8,1.8,2.6C25.1,21,25.2,21.9,25,22.8z M61.6,28.3L55,18.7v9.6h-4.2V6.7H55v7.4l5.9-7.4h5
	l-7.6,9.6l8.3,12H61.6z M97.2,28.3h-4.1V6.7h4.1V28.3z M138.8,28.3h-10.1V6.7h4.1v17.7h6V28.3z M177.6,28.3h-10.1V6.7h4.1v17.7h6
	V28.3z M218.1,22.8c0,1.8-0.6,3.2-1.8,4.4s-2.8,1.7-4.8,1.7c-1.5,0-2.9-0.4-4-1.1c-1.1-0.8-1.8-2.3-2-4.7l3.4-0.8
	c0.5,1.8,1.4,2.7,2.7,2.7c0.7,0,1.3-0.2,1.8-0.6c0.5-0.4,0.7-0.9,0.7-1.4c0-0.5-0.1-1-0.4-1.6c-0.2-0.6-1-1.4-2.2-2.5
	c-2.6-1.7-4.2-3-4.9-4.1s-1-2.1-1-3.1c0-1.5,0.6-2.8,1.7-3.9s2.6-1.6,4.2-1.6c1.1,0,2.1,0.2,3.1,0.7c1,0.5,2,1.4,3.2,2.7L215,12
	c-1.3-1.2-2.5-1.9-3.6-1.9c-0.5,0-1,0.1-1.3,0.4c-0.3,0.3-0.6,0.6-0.6,1c0,0.4,0,0.8,0.1,1.1c0.3,0.7,1.4,1.6,3.4,2.7
	c1.7,1.2,2.7,1.9,3.1,2.2c0.9,1,1.5,1.8,1.8,2.6S218.2,21.9,218.1,22.8z"/>
</svg>
