<?xml version="1.0" encoding="utf-8"?>
<!-- Generator: Adobe Illustrator 22.0.1, SVG Export Plug-In . SVG Version: 6.00 Build 0)  -->
<svg version="1.1" id="Layer_1" xmlns="http://www.w3.org/2000/svg" xmlns:xlink="http://www.w3.org/1999/xlink" x="0px" y="0px"
	 viewBox="0 0 179 20" style="enable-background:new 0 0 179 20;" xml:space="preserve">

<g>
	<path class="aod_color-orange" d="M178.2,12.3c0-0.1-0.1-0.1-0.1-0.2c-0.3-0.6-0.8-1.3-1.5-2.1c-0.3-0.2-1.2-0.9-2.6-1.9c0,0,0,0-0.1,0
		c-1.7-1-2.6-1.8-2.9-2.4c0,0,0,0,0-0.1c-0.1-0.2-0.1-0.5-0.1-0.9c0.1-0.3,0.3-0.6,0.6-0.8s0.7-0.4,1.1-0.4c1,0,2,0.5,3.1,1.6
		l0.1-0.1l2.3-1.9c-1-1.1-1.9-1.9-2.7-2.4c-0.8-0.4-1.7-0.6-2.7-0.6c-0.6,0-1.2,0.1-1.7,0.3c-0.7,0.2-1.3,0.6-1.9,1.1
		c-0.4,0.4-0.7,0.8-0.9,1.2c-0.4,0.7-0.6,1.4-0.6,2.2c0,0.9,0.3,1.8,0.9,2.7c0.6,0.9,2,2.1,4.3,3.5c0.4,0.3,0.6,0.6,0.9,0.9
		c0.5,0.5,0.9,1,1,1.3c0.2,0.5,0.3,1,0.3,1.4c0,0.2,0,0.3-0.1,0.5c-0.1,0.3-0.3,0.5-0.5,0.7c-0.4,0.4-0.9,0.5-1.5,0.5
		c-0.8,0-1.5-0.4-1.9-1.2c-0.2-0.3-0.3-0.7-0.5-1.2l-1.3,0.3l-1.6,0.4c0.2,2,0.8,3.4,1.8,4c1,0.7,2.1,1,3.5,1c1.7,0,3.1-0.5,4.1-1.5
		c1.1-1,1.6-2.3,1.6-3.8C178.6,13.7,178.5,13,178.2,12.3z"/>
	<polygon class="aod_color-orange" points="138.3,15.9 138.3,14.9 138.3,11.5 138.3,0.5 134.7,0.5 134.7,14.9 134.7,19.2 143.5,19.2 143.5,15.9 	
		"/>
	<path class="aod_color-orange" d="M11.2,12.3c0-0.1-0.1-0.1-0.1-0.2c-0.3-0.6-0.8-1.3-1.5-2.1C9.3,9.8,8.5,9.1,7.1,8.1c0,0,0,0-0.1,0
		c-1.7-1-2.6-1.8-2.9-2.4c0,0,0,0,0-0.1C4,5.4,4,5.1,4,4.8C4.1,4.5,4.2,4.2,4.5,4s0.7-0.4,1.1-0.4c1,0,2,0.5,3.1,1.6l0.1-0.1
		l2.3-1.9c-1-1.1-1.9-1.9-2.7-2.4C7.6,0.4,6.7,0.2,5.7,0.2C5.1,0.2,4.5,0.3,4,0.5C3.3,0.7,2.6,1,2.1,1.6C1.7,1.9,1.4,2.3,1.2,2.7
		C0.8,3.4,0.6,4.1,0.6,4.9c0,0.9,0.3,1.8,0.9,2.7s2,2.1,4.3,3.5c0.4,0.3,0.6,0.6,0.9,0.9c0.5,0.5,0.9,1,1,1.3c0.2,0.5,0.3,1,0.3,1.4
		c0,0.2,0,0.3-0.1,0.5c-0.1,0.3-0.3,0.5-0.5,0.7c-0.4,0.4-0.9,0.5-1.5,0.5c-0.8,0-1.5-0.4-1.9-1.2c-0.2-0.3-0.3-0.7-0.5-1.2
		l-1.3,0.3l-1.6,0.4c0.2,2,0.8,3.4,1.8,4c1,0.7,2.1,1,3.5,1c1.7,0,3.1-0.5,4.1-1.5c1.1-1,1.6-2.3,1.6-3.8
		C11.6,13.7,11.5,13,11.2,12.3z"/>
	<polygon class="aod_color-orange" points="104.7,15.9 104.7,14.9 104.7,11.5 104.7,0.5 101.1,0.5 101.1,14.9 101.1,19.2 109.9,19.2 109.9,15.9 	
		"/>
	<polygon class="aod_color-orange" points="70.4,0.5 70.4,14.9 70.4,19.2 73.9,19.2 73.9,14.9 73.9,0.5 	"/>
	<polygon class="aod_color-orange" points="44.4,14.9 40.2,8.9 41.8,6.9 46.7,0.5 43.3,0.5 42.4,0.5 37.5,6.8 37.4,7 37.4,6.6 37.4,2.7 37.4,0.5 
		33.8,0.5 33.8,14.9 33.8,19.2 37.4,19.2 37.4,14.9 37.4,10.9 43.1,19.2 47.4,19.2 	"/>
</g>
<g class="aod_color_shadow_opacity">
	<path class="aod_color_darkgrey" d="M174.9,10.3c0-0.4-0.1-0.9-0.3-1.4c-0.1-0.2-0.3-0.5-0.6-0.8c0,0,0,0-0.1,0c-1.7-1-2.6-1.8-2.9-2.4
		c0,0,0,0,0-0.1c-1.3-0.9-2.2-1.7-2.6-2.4c-0.1-0.2-0.2-0.4-0.3-0.5c-0.4,0.7-0.6,1.4-0.6,2.2c0,0.9,0.3,1.8,0.9,2.7
		c0.6,0.9,2,2.1,4.3,3.5c0.4,0.3,0.6,0.6,0.9,0.9c0.3-0.1,0.5-0.2,0.7-0.4C174.7,11.2,174.9,10.8,174.9,10.3z"/>
	<path class="aod_color_darkgrey" d="M169.2,18.8c1,0.7,2.1,1,3.5,1c1.7,0,3.1-0.5,4.1-1.5c1.1-1,1.6-2.3,1.6-3.8c0.1-0.8,0.1-1.5-0.2-2.2
		c0-0.1-0.1-0.1-0.1-0.2c-0.3,0.7-0.7,1.4-1.3,1.9c-0.6,0.5-1.2,0.9-2,1.2c-0.1,0.3-0.3,0.5-0.5,0.7c-0.4,0.4-0.9,0.5-1.5,0.5
		c-0.8,0-1.5-0.4-1.9-1.2c-0.6-0.2-1.1-0.4-1.6-0.7c0,0-0.1-0.1-0.1-0.1l-1.6,0.4C167.6,16.8,168.2,18.2,169.2,18.8z"/>
	<path class="aod_color_darkgrey" d="M171.1,1.4c0.3,0.6,1.3,1.4,2.9,2.4c0.8,0.6,1.4,1,1.9,1.3l2.3-1.9c-1-1.1-1.9-1.9-2.7-2.4
		c-0.8-0.4-1.7-0.6-2.7-0.6c-0.6,0-1.2,0.1-1.7,0.3c0,0,0,0,0,0C170.9,0.9,171,1.2,171.1,1.4z"/>
	<path class="aod_color_darkgrey" d="M4.1,1.4C4.4,2,5.4,2.8,7,3.8c0.8,0.6,1.4,1,1.9,1.3l2.3-1.9c-1-1.1-1.9-1.9-2.7-2.4S6.7,0.2,5.7,0.2
		C5.1,0.2,4.5,0.3,4,0.5c0,0,0,0,0,0C4,0.9,4,1.2,4.1,1.4z"/>
	<polygon class="aod_color_darkgrey" points="143.5,15.9 138.3,15.9 138.3,14.9 134.7,14.9 134.7,19.2 143.5,19.2 	"/>
	<path class="aod_color_darkgrey" d="M8,10.3C8,9.9,7.9,9.5,7.7,9C7.6,8.7,7.4,8.5,7.1,8.1c0,0,0,0-0.1,0c-1.7-1-2.6-1.8-2.9-2.4c0,0,0,0,0-0.1
		C2.8,4.7,1.9,3.9,1.5,3.3C1.4,3.1,1.3,2.9,1.2,2.7C0.8,3.4,0.6,4.1,0.6,4.9c0,0.9,0.3,1.8,0.9,2.7s2,2.1,4.3,3.5
		c0.4,0.3,0.6,0.6,0.9,0.9c0.3-0.1,0.5-0.2,0.7-0.4C7.8,11.2,8,10.8,8,10.3z"/>
	<path class="aod_color_darkgrey" d="M2.3,18.8c1,0.7,2.1,1,3.5,1c1.7,0,3.1-0.5,4.1-1.5c1.1-1,1.6-2.3,1.6-3.8c0.1-0.8,0.1-1.5-0.2-2.2
		c0-0.1-0.1-0.1-0.1-0.2c-0.3,0.7-0.7,1.4-1.3,1.9c-0.6,0.5-1.2,0.9-2,1.2c-0.1,0.3-0.3,0.5-0.5,0.7c-0.4,0.4-0.9,0.5-1.5,0.5
		c-0.8,0-1.5-0.4-1.9-1.2c-0.6-0.2-1.1-0.4-1.6-0.7c0,0-0.1-0.1-0.1-0.1l-1.6,0.4C0.7,16.8,1.3,18.2,2.3,18.8z"/>
	<polygon class="aod_color_darkgrey" points="109.9,15.9 104.7,15.9 104.7,14.9 101.1,14.9 101.1,19.2 109.9,19.2 	"/>
	<rect x="70.4" y="14.9" class="aod_color_darkgrey" width="3.5" height="4.3"/>
	<rect x="33.8" y="14.9" class="aod_color_darkgrey" width="3.6" height="4.3"/>
	<polygon class="aod_color_darkgrey" points="41.8,6.9 46.7,0.5 43.3,0.5 40.2,4.6 	"/>
	<polygon class="aod_color_darkgrey" points="37.5,6.8 37.4,7 37.4,10.9 43.1,19.2 47.4,19.2 44.4,14.9 43.1,14.9 	"/>
</g>
    
</svg>
