<?xml version="1.0" encoding="utf-8"?>
<!-- Generator: Adobe Illustrator 22.0.1, SVG Export Plug-In . SVG Version: 6.00 Build 0)  -->
<svg version="1.1" id="Layer_2" xmlns="http://www.w3.org/2000/svg" xmlns:xlink="http://www.w3.org/1999/xlink" x="0px" y="0px"
	 viewBox="0 0 179 20" style="enable-background:new 0 0 179 20;" xml:space="preserve">
<style type="text/css">
	.st0{fill:#FC9C0E;}
</style>
<polygon  fill="#1F4360;" points="109.8,15.8 104.7,15.8 104.7,0.6 101.1,0.6 101.1,19.2 109.8,19.2 "/>
<path  fill="#1F4360;" d="M172.7,16.4c-1.2,0-2-0.8-2.4-2.3l-2.9,0.7c0.2,2,0.8,3.4,1.8,4s2.1,1,3.5,1c1.7,0,3.1-0.5,4.1-1.5
	s1.6-2.3,1.6-3.8c0.1-0.8,0.1-1.5-0.2-2.2s-0.8-1.4-1.6-2.3c-0.3-0.3-1.2-0.9-2.6-1.9c-1.7-1-2.6-1.8-2.9-2.4
	c-0.1-0.2-0.2-0.6-0.1-0.9c0.1-0.3,0.3-0.6,0.6-0.8s0.7-0.4,1.1-0.4c1,0,2,0.5,3.1,1.6l2.3-2c-1-1.1-1.9-1.9-2.7-2.4
	s-1.7-0.6-2.7-0.6c-1.4,0-2.7,0.5-3.6,1.4s-1.5,2-1.5,3.3c0,0.9,0.3,1.8,0.9,2.7s2,2.1,4.3,3.5c1,1,1.7,1.7,1.9,2.2s0.3,1,0.3,1.4
	c0,0.5-0.2,0.9-0.6,1.2S173.3,16.4,172.7,16.4z"/>
<polygon  fill="#1F4360;" points="143.4,15.8 138.2,15.8 138.2,0.6 134.7,0.6 134.7,19.2 143.4,19.2 "/>
<rect x="70.4" y="0.6"  fill="#1F4360;" width="3.5" height="18.7"/>
<polygon  fill="#1F4360;" points="37.4,10.9 43.2,19.2 47.4,19.2 40.3,8.9 46.8,0.6 42.5,0.6 37.4,7 37.4,0.6 33.9,0.6 33.9,19.2 
	37.4,19.2 "/>
<path  fill="#1F4360;" d="M5.9,16.4c-1.2,0-2-0.8-2.4-2.3l-2.9,0.7c0.2,2,0.8,3.4,1.8,4s2.1,1,3.5,1c1.7,0,3.1-0.5,4.1-1.5
	s1.6-2.3,1.6-3.8c0.1-0.8,0.1-1.5-0.2-2.2s-0.8-1.4-1.6-2.3C9.5,9.8,8.6,9.1,7.1,8.1c-1.7-1-2.6-1.8-2.9-2.4
	C4.1,5.5,4.1,5.2,4.1,4.8C4.2,4.5,4.4,4.2,4.7,4s0.7-0.4,1.1-0.4c1,0,2,0.5,3.1,1.6l2.3-2c-1-1.1-1.9-1.9-2.7-2.4S6.8,0.2,5.9,0.2
	c-1.4,0-2.7,0.5-3.6,1.4s-1.5,2-1.5,3.3c0,0.9,0.3,1.8,0.9,2.7s2,2.1,4.3,3.5c1,1,1.7,1.7,1.9,2.2s0.3,1,0.3,1.4
	c0,0.5-0.2,0.9-0.6,1.2S6.5,16.4,5.9,16.4z"/>
</svg>
