<svg xmlns="http://www.w3.org/2000/svg" version="1.1" xmlns:xlink="http://www.w3.org/1999/xlink" xmlns:svgjs="http://svgjs.com/svgjs" width="260" height="260"><svg id="SvgjsSvg1000" data-name="Layer 1" xmlns="http://www.w3.org/2000/svg" viewBox="0 0 260 260"><path d="M220.7.5H150.4V74.33c-28.54,0-60.62,10.38-80.9,31.37-20,20.76-30.2,45.06-30.2,72.66,0,24.06,7.08,43.4,21.23,58.5Q82.12,259.5,120,259.5h8.5l22.17-24.3v24.3H220.7ZM150.64,210.2c-6.13,5-12,7.55-19.11,7.55-9.43,0-17-4.25-22.41-12.5s-8-21-8-38.22c0-15.8,2.36-29,7.32-39.62s12.73-16,22.88-16a45,45,0,0,1,19.34,4Z" fill="#ff7400"></path></svg><style>@media (prefers-color-scheme: light) { :root { filter: none; } }
</style></svg>