<svg xmlns="http://www.w3.org/2000/svg" width="149.54" height="73.41" viewBox="0 0 149.54 73.41"><defs><style>.cls-1{fill:#cf0a2c;}.cls-2{fill:#010101;}.cls-3{fill:#4c8b2b;}.cls-4{fill:none;}</style></defs><title>balwin_logo</title><g id="Layer_2" data-name="Layer 2"><g id="Layer_1-2" data-name="Layer 1"><path class="cls-1" d="M140.88,51.61l0,.14.25,1.52.14.16.16.18.42.17.72.08h1.18l.51,0,.46-.13.59-.3.76-.76.68-.93.46-.84.42-1.1L148,49l.34-.93.3-.89.17-.46v0l0-.48,0-1-.42.17-.68.46-.46.51-.34.51-.3.8-.51,1.22-.3.68-.42.76-.46.46-.46.46h0l0,0-.19-.15-.46-.46-.38-.38h-.34v0l-.25-1.42-.13-1.1-.08-1.18,0-1,.08-.51.17-.25v0l-.07-.26-.21-.08-.42.13-.46.17-.42.25-.17.15-.17.15-.42.3-.42,0-.21-.21-.13-.34.08-.46.17-.34.17-.42h0l0-.28h-.42l-.76.25-.76.51-1,1-1,1-1.1,1.18-.8.72-1,.46-.93.25-1.22.34-1.52.89-1.27.68-1.69,1.06-1.73,1-1.1.55-.68.3-.84,0-.84-.08-.93-.21h0l-.89-.38-.21-.46-.13-.84v-1l.21-.68L120,49l.51-1,.76-1.6.93-2,.8-1.69.68-1.22.8-1.14.58-.58v0h0l-.48-.6-.72.21-.93.3-1.48.51-.42.25-.38.51-.46.8-.51.84-.55,1-.8,1.05-.76.8-.84.76-.89.72-.93.8-1.1,1.06-.35.35-.08.08-.46.84-.55.93-.55.8-.55.55-.68.51-.68.42-.84.3,0,0,.32.6.55.21.35,0h.12l.46-.17.63-.51.93-.59,1.52-1L115.7,51l.46-.46.3,0,.17,0,.3.13.34.34.13.42v.38l.07.42.51.93.76,1.27H119l.85.12.93.21.84.3,1.22.21.76,0,.55-.08.76-.34.72-.25,1.9-.93,1.06-.55,1.48-.68,1.52-.63,1.1-.42,1.06-.25.68-.13,0,1.31-.71.45-.09.06v.25l.13,1.14.21.84.25.25h.25l.29-.13.34-.13.34-.13.21-.3.38-.59.76-.93.72-.89.8-.76.76-.72.51-.46.42-.21h.21l.17,0,.42,1ZM105,23l0,.54-.51,1.1-.59.84-.72.93-.93,1.31-1.35,1.52-1.44,1.73-1.77,1.73L96.2,34.19l-1.39,1.22-1.56,1.65-1.39,1.44-1.27,1.43-.63.74-.13.15-.46.68-.59,1.1-.46.55-.51,0V41.83l.42-.55.38-.8.42-.84.34-.8L90,37.35l.59-1.22,1.18-1.81L92.61,33l1.14-1.56,1.06-1.35,1.31-1.65,1.69-1.6,1.14-1.1,2-1.6,1.35-1,1.1-.55.68-.3.59-.17h.63l0,.3-.17.3L105,23Zm10.18,17.9.11-.3-.08-.36-.36-.36-.36-.44-.68-.52-.88-.64-1-.68-.36-.16-.44.16-.64.32-.36.4-.08.4-.08.48.08.48.28.4.4.32.28.36.2.56.08,1v1l0,1-.12.68-.32,1.08-.28,1-.4.88-.32.76-.44.8-.2.2h-.28l-.56-.36-.48-.56-.68-1.16-.6-1.4L106.09,45l-.36-.88-.76.4-.6.44-.64.64-.72.76-.6.68-.48.52-.56.72-.44.52-.28.4-.32.4-.15.28-.09.16-.32.48-.24.4-.44.36-.36.32-.56.16-.36.08L98,50.72l.44-1.12.64-1.28.92-1.64,1.08-1.8,1.24-2,.92-1.44.92-1.12.64-.76.36-.32.16,0,.32-.08L106,39l-.44-.52-.52-.32-.44-.24-.52-.2-.4.6-.76,1.08-.88,1-1,1-.76.92-.88,1-1,1.12-.56.88-.56.84-.44.88-.56,1.6-.44,1.4-.36,1-.24.76-.32,1-.2.56-.56.12-.8,0-.68-.08L92,53.28,91.21,53l-.88-.28-1.44-.56L86.36,51l.2-2,.1-.37.26-1,.52-1.88.2-.56,1.56-1.72,1.52-1.72,1.12-1.32,1.32-1.2L94.54,38l1.36-1.36,1.6-1.56,1.6-1.64.76-1,2.21-2.89,2.37-3.17L106.17,24l1.12-1.48.92-1.28.06-.06.14-.14-.08-.4-.48-.32-.6,0h-.76l-.76.12-.88.32-1.16.56L102,22.45l-1.93,1.36-2.29,1.8-1.4,1.28-1.89,2L93,30.79,91.25,33l-1.8,2.65-2.09,3.13-2.49,4-.52,1.32-.56,1.2-.44,1.12-.32.84-.32.76-.24.52-.32.4-.64.48-1.16.52-.88.32-.92.4-.92.44-.36.2-.32.2-.44.12-.68-.12-.64-.16-.43-.05-.21,0-.56,0-.08-.48-.2-.4-.16-.6-.16-.6v-.48l.48-.6.4-.4.16-.2-.21-.15L73.81,47l-.6.48-.44.52-.36.64-.52.84-.48.76-.76.68-.88.76-.84.56-.8.4-.92.56-.92.36-.6.28L65,54l-.39.13-.09,0-.44.48-.68-.48.2-1.08.2-1.4.28-1,.08-.56,1.2-1.36,1.32-1.32.76-.72.76-.76,1-.92,1.12-.88.92-.68,1-.4.84-.44.52-.08h.28l.2.32v.36l.48.12.24.2,0-.56.12-.52.16-.2.28-.12h.28l.2.16v-.06l0-.66-.08-.4-.24-.32-.48-.2-.84-.16-1.32-.16-1.22.07-.63.53-.82.77-1,.73-1.06.92-1.31,1.16-1.35,1.11-1.06,1.21-1,1-.63.87-.68,1-.58.92-.19.82-.19.82v1.4l.15.73.29.73.39.53.34.39.11,0L63,56l1.74-.1L66,55.65l1.06-.58,1.21-.82.92-.63,1-.53,1-.24,1-.14.87.1.73.24.82.29,1.26.14L77,53.23l1.5-.53,2.47-1,1.31-.58.92-.53.73-.63.39-.58.24,1.6,0,.1.22.87.21.88.24.48.76.6h0l.16-.52.56.36.76.4.8.28,1.08.24,1.4.16,2.29.08,5.09,0,.48-.68.48-.64.48-.64,1-.88.92-1,.88-.84.76-.76.36-.52.28-.36.24-.32.24,0,.36.08.36.24.16.4.09.32,0,.12.24.32.36.64.11.19.13.21.48.28.52.56.4.24.56.24.64.16.21,0a.37.37,0,0,0,.62-.29l.53-.87.6-.84.88-1.32.6-1.32.48-1.2.2-1.16,0-1.08V42.3l.12-1,.52,0,.56,0,.32-.08.28-.32.2,0,.28,0Zm-78.42-9.2,1,.28,1.64.44,1.74.29,1.79.19,1.31,0,1.06-.19,1.4-.39,1.16-.48,1.35-.34,1.31-.1,1.64.1,1.69.48,1.93.82L57.69,34l.58.53.1.08.28.21.48,2.71.39,2.08.24,1.4v.73l-.24.58-.48.82-1.21,1.26-1.06.87-.92.87-.77.82-.68.77-.92.92L52.37,49.8l-.87.68-.34.19-1.5,0-1.89,1.93-3.68,0-.82,1.35H37.72l-.92,1.21-.34.34-.63.15-1.21.1H32s-1.35-.1-1.6-.1l-1.26-.15-1.11,0-.92.1-1,.19-.82.19-.44.24-1.5-.1-.29-.73L24,55l.92-.48.73-.48.82-.92.29-.1H27V51.63l-.73-.1-.63,0-.44,0-.34.19-.39,0-.53-.15-.68-.34-.73-.34-.09.07-.1.08L22,50.47,21.81,50V49.7l.44-.58.29-.58.44-1,.34-.77,1-1.84,1.26-2.37,1.35-2.32,1.4-2.37,1.31-2.13L31,33.84l1.45-2.27,1.31-2,1-1.4.77-1,.87-1.06.73-1L38,23.83l.73-1.21.92-1,.63-.63.48,0L41,21h.07l-.58-1.06-.39-.53-.48-.53-.53.87L38.3,21l-.87,1-.48.63-.68.77-.87,1-1,1.21-1.55,1.79-1.5,1.84-2.08,2.95L27.42,35.1l-2.08,3.29L21.76,44l-2.95,4.93-2.51,4-1.93,3-1.45,1.93-1.55,1.84-1.6,2L7.74,64,5.13,66.86l-2,2.32-.34-.87-.15-.68-1.21,0-.73.1L0,67.83l.39,1.06L.63,70l.53,1.35.29.68.39.34.29,0,.82-.68.39-.58.44-.29a7.63,7.63,0,0,1,.68-.77l.77-.53L6,69.09l.87-.24,1-.34.82-.29.58-.53.53-1.11.77-1.16,2.13-2,2.56-2.13L17.6,59l4.79,0,6.43-.19,5.22-.1h3.53l.43-.19.44-.48.68-.87h5.75l2,0L47.68,56l2-.19,1.69-.24.77,0,.82-.63,1.4-1,1.45-1,1.74-1.21,1.45-1,1.4-3.24L62.09,46l.63-.77.34-.68.15-1.45L63.06,41,63,39.26l.15-.39.24-.48-.48-.92-.73-.63-1.16-1-1-.77L59,34l-1.11-1.31-1.31-1.5-1-1.06-1-.68-1.06-.63-1.11-.24H51.7l-.48.15-.26.13-.13.06-.39-.82,0-.82,1.4-1.69,3.43-3.29,2-2.18,1.26-1.45L60,17.45l2-1.93,1.31-1.35,1.11-1.6L65,11.31,65.43,10l.14-1.35-.1-1.45L65,5.46l-.14-.31-.15-.32-.92-.92L61.76,2.56,60.4,1.74l-.68-.19-.92-.1-1.35.1L57.21.87,56.82.44,56.29.15,55.52,0l-.87,0-.87.1L52.66.29l-1,.19-.82,0-.73.1L49.42.48,48.65.24,48.07,0h-.58l-.63,0c-1,0-1.84,0-1.86,1.11l-.07.31H43.38l-1-.1-1.45,0-.44.1-.29.19L39.9,2l-.29.48-.29.63H35.79L35.06,4.3H32.74L31,6l-1.6-.1-.92.24-1.79,1L25.05,8.27l-3.87,3.14-2.18,2-1.89,2-1.26,1.35-.77,1.06-.82.77L13,19.92l-.68.58-.58.58-.19.39-.1.29-.19,2.66-.92,2-.39,1.06-.39,1.26-.1,1.06-.1,1.64v.48l.73-.29.08-.34L10.2,31l.73-.87.63-1.26.53-1.31.34-1.5.48-1.84L13.49,23l1.21-1.79,1.5-1.64.24-.43.92-1,.53-.48.39-.48,1.26-.92.77-.63,1.5-1.16,1.45-1.21.92-1.06.48-.92.39-1.21.77-.19.58-.29L26.94,9l.63-.48.73-.34.77-.1L30,7.93h.82l.53-.24.53-.44.77-1.16.29-.44,1.4-.24,2.08-.29.92-.82,3-.34,2.51-1.35,4,0,1.4-.14L50,2.32,52,2,54.4,2l1,.1.82.53,1.26.63,1.79,1.16,1.45,1.06.77.87.43.68.24.53V8.65L61.9,9.77l-.77,1.45-.68,1.26-.82,1.31-.34.63-.19.53L59,16.1l-.1.77-.34.58-.48.48-.73.44-1,.29-.58.29-.68.68-1.16,1.16-1.4,1.55-.29.19-.63.1H49.09l-.19,1.31-2.13,1.6h-3l-.53,1.4-2.18.1-1.4.68-1.06.68-.82.58-.87.82-.82,1,.68.92Z"/><path class="cls-2" d="M143,71.88l.32-1q.39.29.64.45a3.06,3.06,0,0,0,1.63.47,2,2,0,0,0,1.39-.46,1.34,1.34,0,0,0,.45-1,1.32,1.32,0,0,0-.64-1.13,10.83,10.83,0,0,0-1.45-.69,5.34,5.34,0,0,1-1.69-1,1.9,1.9,0,0,1-.58-1.38,2,2,0,0,1,.43-1.27,3.26,3.26,0,0,1,2.75-1.09,6,6,0,0,1,2.23.46l-.3.91a3.9,3.9,0,0,0-2-.69,1.7,1.7,0,0,0-1.19.41,1.13,1.13,0,0,0-.39.86,1.07,1.07,0,0,0,.39.85,6.52,6.52,0,0,0,1.6.82,5.21,5.21,0,0,1,1.8,1.06,2.18,2.18,0,0,1,.59,1.51,2.34,2.34,0,0,1-.43,1.35,3.23,3.23,0,0,1-2.87,1.25,5.47,5.47,0,0,1-1.31-.15,6.92,6.92,0,0,1-1.34-.51m-7.12-8h5v.7a1.62,1.62,0,0,0-.45-.06h-2.86v3.26h2.78a2.17,2.17,0,0,0,.53-.06v.7a2.72,2.72,0,0,0-.51,0h-2.79v3.37h2.77a2.66,2.66,0,0,0,.53-.06v.75h-5A1.42,1.42,0,0,0,136,72V64.27a1.13,1.13,0,0,0-.06-.41m-4.9,0h1.73a1.29,1.29,0,0,0-.06.4V72a1.31,1.31,0,0,0,.06.41H131a1.3,1.3,0,0,0,.06-.41V64.26a1.27,1.27,0,0,0-.06-.4m-8.85,0h7v.78a3.75,3.75,0,0,0-.6-.06h-2.07V72a1.3,1.3,0,0,0,.06.41h-1.73a1.27,1.27,0,0,0,.06-.41V64.57H122.8a3.44,3.44,0,0,0-.61.06ZM116.32,68h.74a2.07,2.07,0,0,0,1.12-.29,1.59,1.59,0,0,0,.77-1.43,1.68,1.68,0,0,0-.65-1.39,2.09,2.09,0,0,0-1.32-.37h-.67Zm0,.49V72a1.34,1.34,0,0,0,.06.41h-1.73a1.16,1.16,0,0,0,.06-.41V64.26a1.3,1.3,0,0,0-.06-.41h2.91a3.93,3.93,0,0,1,1.75.37,2.33,2.33,0,0,1,.92.79,2,2,0,0,1,.34,1.15,2,2,0,0,1-1.52,2,7.49,7.49,0,0,1-1.07.25l3.15,3.7a1.64,1.64,0,0,0,.39.34h-2.09a1.4,1.4,0,0,0-.2-.37Zm-9.41-4.59h5v.7a1.62,1.62,0,0,0-.45-.06h-2.86v3.26h2.78a2.16,2.16,0,0,0,.53-.06v.7a2.72,2.72,0,0,0-.51,0h-2.79v3.37h2.77a2.65,2.65,0,0,0,.53-.06v.75h-5A1.39,1.39,0,0,0,107,72V64.27a1.13,1.13,0,0,0-.06-.41m-6.81,4.22H101a2.44,2.44,0,0,0,1.13-.23,1.59,1.59,0,0,0,.65-.65,1.94,1.94,0,0,0,.24-1,1.67,1.67,0,0,0-.5-1.28,2,2,0,0,0-1.38-.47h-1Zm0,.66V72a1.44,1.44,0,0,0,.07.41H98.46a1.33,1.33,0,0,0,.06-.41V64.27a1.31,1.31,0,0,0-.06-.42h3.07a4.12,4.12,0,0,1,1.9.4,2.07,2.07,0,0,1,1.2,2,2.2,2.2,0,0,1-1.45,2.13,4.93,4.93,0,0,1-2,.38Zm-9-4.34a2.66,2.66,0,0,0-2.34,1.07,4.46,4.46,0,0,0-.68,2.61q0,3.8,3,3.8a2.66,2.66,0,0,0,2.29-1.07,3.34,3.34,0,0,0,.54-1.14,6.07,6.07,0,0,0,.16-1.51q0-3.72-3-3.76m0-.67a5.07,5.07,0,0,1,3.36,1,4.15,4.15,0,0,1,1.36,3.35,4.21,4.21,0,0,1-1.3,3.32,5,5,0,0,1-3.45,1.09,4.78,4.78,0,0,1-3.5-1.17A4.45,4.45,0,0,1,86.35,68a4.61,4.61,0,0,1,.58-2.34q1.12-2,4.15-2M79.84,68h.75a2.08,2.08,0,0,0,1.12-.29,1.59,1.59,0,0,0,.77-1.43,1.68,1.68,0,0,0-.65-1.39,2.09,2.09,0,0,0-1.32-.37h-.67Zm0,.49V72a1.34,1.34,0,0,0,.06.41H78.17a1.15,1.15,0,0,0,.06-.41V64.26a1.3,1.3,0,0,0-.06-.41h2.91a3.93,3.93,0,0,1,1.75.37,2.33,2.33,0,0,1,.92.79,2,2,0,0,1,.34,1.15,2,2,0,0,1-1.52,2,7.47,7.47,0,0,1-1.07.25l3.15,3.7a1.66,1.66,0,0,0,.39.34H83a1.42,1.42,0,0,0-.2-.37Zm-8.48-.37h.86a2.44,2.44,0,0,0,1.13-.23,1.6,1.6,0,0,0,.65-.65,2,2,0,0,0,.24-1,1.67,1.67,0,0,0-.5-1.28,2,2,0,0,0-1.38-.47h-1Zm0,.66V72a1.44,1.44,0,0,0,.07.41H69.71a1.34,1.34,0,0,0,.06-.41V64.27a1.3,1.3,0,0,0-.06-.42h3.07a4.12,4.12,0,0,1,1.9.4,2.07,2.07,0,0,1,1.19,2,2.2,2.2,0,0,1-1.45,2.13,4.92,4.92,0,0,1-2,.38Z"/><path class="cls-2" d="M140.88,51.61l-.1-.45-.42-1-.17,0H140l-.42.21-.51.46-.76.72-.8.76-.72.89-.76.93-.38.59-.21.3-.34.13-.34.13-.29.13,0,1.11,1.49.17,1-1.14.81-1,.89-1.1.72-.89.59-.59.55-.25Zm7.93-5v0l-.17.46-.3.89L148,49l-.34.8-.42,1.1-.46.84-.68.93-.76.76-.59.3-.46.13-.51,0H142.6l-.72-.08-.42-.17-.16-.18v.09l.17.55.13.47.25.38.25.3.38.21.68.08.81-.17.76-.3,1-.59.93-.55.76-.76.76-1.06.64-1,.47-1.14.17-.72,0-.85-.13-.85-.38-.64Zm-5.92-1.95v0l-.17.25-.08.51,0,1,.08,1.18.13,1.1.25,1.42.16-.09.38-.25.25-.51.08-1.27L143.81,47l-.13-1.1-.08-.85-.21-.25Zm-2.69-1h0l-.17.42-.17.34-.08.46.13.34.21.21.42,0,.42-.3.17-.15v-.32l0-.51-.25-.34-.42-.21Zm-6.5,9.16.71-.45,0-1.31-.68.13-1.06.25-1.1.42-1.52.63-1.48.68-1.06.55-1.9.93-.72.25-.76.34-.55.08-.76,0-1.22-.21-.84-.3-.93-.21-.85-.12-.09.72.64.42.72.47.85.47,1,.13,1,0,1.15-.21,1.61-.55,2.42-.76,2-.89,2.84-1.19Zm-5.56-19.34,0,.07M125,39.77l-.58.58-.8,1.14L123,42.71l-.8,1.69-.93,2-.76,1.6L120,49l-.3.76-.21.68v1l.13.84.21.46.89.38h0l0-.64v-.81l.3-1,.38-1.57.72-1.78.85-1.91.93-1.61.93-1.19.85-1.06Zm-7.62,12.07v-.38l-.13-.42-.34-.34-.3-.13-.17,0-.3,0-.46.46-1.77,1.1-1.52,1-.93.59-.63.51-.46.17h-.12l-.19.26-.17.21.3.38.42.3.51-.08.47-.13.64-.25.93-.51.72-.47,1-.51,1.27-.85.89-.64Zm-8.35,1.72,0,0,.84-.3.68-.42.68-.51.55-.55.55-.8.55-.93.46-.84.08-.08v-.25l.3-.93.21-.89.17-1.06,0-1.1-.13-1.15,0-.38,0-.3.42-.34.51-.3.51-.25.3-.21,0-.47-.3-.3-.22-.29v0l-.28,0-.2,0-.28.32-.32.08-.56,0-.52,0-.12,1v1.92l0,1.08-.2,1.16-.48,1.2-.6,1.32-.88,1.32-.6.84-.53.87a.37.37,0,0,1-.62.29l-.21,0-.64-.16-.56-.24-.4-.24-.52-.56-.48-.28-.13-.21v.09l.21.64.42.64.72.85.64.51.64.25Zm-3.68-14.35-.16,0-.36.32-.64.76-.92,1.12-.92,1.44-1.24,2L100,46.67l-.92,1.64-.64,1.28L98,50.72l-.24,1.12.36-.08.56-.16.36-.32.44-.36.24-.4.32-.48.09-.16.07-.26.25-.85.3-.76.42-.64.47-.68.55-.72.59-.76.64-.81.76-.93.51-.76.51-.89.51-.89.25-.68.3,0-.25-.42-.38-.38Zm-.12,10.11-.09-.32-.16-.4-.36-.24-.36-.08-.24,0-.24.32-.28.36-.36.52-.76.76-.88.84-.92,1-1,.88-.48.64-.48.64-.48.68-5.09,0-2.29-.08-1.4-.16-1.08-.24-.8-.28-.76-.4-.56-.36-.16.52.07.18.34.51.81.64.89.51.76.25.93.21,1.06.08h2.63l2-.08,3.35-.13.64-.76.93-1,.89-1,1-1,.89-.93.89-.89.72-.85ZM105,23h0l.08-.25.17-.3,0-.3h-.63l-.59.17-.68.3-1.1.55-1.35,1-2,1.6L97.8,26.8l-1.69,1.6-1.31,1.65L93.75,31.4,92.61,33l-.89,1.35-1.18,1.81L90,37.35l-.59,1.48-.34.8-.42.84-.38.8-.42.55v1.35l.51,0,.46-.55.59-1.1.46-.68.13-.15.1-.22.76-1.19.89-1.7,1.4-2.25,1.27-1.87,1.57-2.08,1.19-1.31.81-1,1.53-1.31,1.23-1L102,25.9l1.23-1,1.1-1,.64-.81ZM84.61,51.06l0-.1-.24-1.6-.39.58-.73.63-.92.53L81,51.68l-2.47,1-1.5.53-1.21.24-1.26-.14L73.75,53,73,52.8l-.87-.1-1,.14-1,.24-1,.53-.92.63-1.21.82L66,55.65l-1.26.24L63,56l-.57-.08v0l0,.55.37.41.46.32.41.32.37.18,1-.09.92-.41.87-.37.83-.46.92-.6.46-.23,1.28-.83.6-.27.78-.28.83,0,1.88,0,2.06.09,1.88.09.83-.37,1.51-.64,2.11-1,1.28-.78.41-.27Zm23.67-29.87-.06.06-.92,1.28L106.17,24l-1.72,2.41-2.37,3.17-2.21,2.89-.76,1-1.6,1.64-1.6,1.56L94.54,38l-1.36,1.2-1.32,1.2-1.12,1.32L89.21,43.5l-1.56,1.72-.2.56-.52,1.88-.26,1,.68-.71,3.12-3.57,2.66-2.84,1.56-1.74,2.11-1.88,2.52-2.47,1.38-1.37.92-1.37,1.19-1.56,1.74-2.75,1.93-2.75,1.38-1.83.78-1.1Zm-32.43,21v.06l-.2-.16h-.28l-.28.12-.16.2-.12.52,0,.56-.24-.2L74,43.14v-.36l-.2-.32h-.28l-.52.08L72.2,43l-1,.4-.92.68-1.12.88-1,.92-.76.76-.76.72-1.32,1.32L64.14,50l-.08.56-.28,1-.2,1.4-.2,1.08.68.48.44-.48.09,0,.05-.23.18-.5c0-.18.41-1,.41-1l.64-1.51.37-.87.46-.69.5-.55.73-.64.73-.55.78-.55.87-.6L71,46l.64-.41.78-.5L73,44.7l.55-.55.28-.09.32,0,.23.23.09.69,0,1.24,0,.73-.25.28.21.15-.16.2-.4.4-.48.6v.48l.16.6.16.6.2.4.08.48.56,0,.21,0,.08-.15.37-.46.5-.28.5-.41,0-2.93,1.37-3.21ZM58.38,34.6l-.1-.08L57.69,34l-1.84-1.26-1.93-.82-1.69-.48-1.64-.1-1.31.1-1.35.34-1.16.48-1.4.39-1.06.19-1.31,0-1.79-.19-1.74-.29L37.82,32l-1-.28.33.49.72.67.88.59,1.05.42,1.18.08h1.6l1.85-.13,1.26-.17,1.43-.34,1.6-.34,1.6-.08h1.64l1.14.08,1,.13,1.39.5,1,.46.8.38.71.13ZM62.14,7.84V7.59l-.24-.53-.43-.68-.77-.87L59.24,4.45,57.45,3.29l-1.26-.63-.82-.53-1-.1L52,2,50,2.32l-1.74.19-1.4.14-4,0L40.33,4l-3,.34-.92.82-2.08.29-1.4.24-.29.44-.77,1.16-.53.44-.53.24H30l-.92.14-.77.1-.73.34L26.94,9l-.53.63-.58.29-.77.19-.39,1.21-.48.92-.92,1.06L21.81,14.5l-1.5,1.16-.77.63-1.26.92-.39.48-.53.48-.92,1-.24.44-1.5,1.64L13.49,23l-.58,1.21-.48,1.84-.34,1.5-.53,1.31-.63,1.26L10.2,31l-.07.29.06.59.08.42.08.29h.17l.29-.17.42-.38.55-.84.34-.84.42-1L13,28.17l.38-1.26.42-1.26.29-.88.42-.88.72-1.09,1-1.22,1.09-1.22,1.26-1L20,18.25l1.68-1.3.88-.67.88-.76.59-.67.46-.84.38-1,.34-.67.29-.55.29-.34.59-.08.59-.13.42-.17.38-.46.42-.59.17-.17L29,9.62l1.05-.17.84-.13.63,0L32,9.16l.46-.59L33,7.73l.34-.46.21-.17L34,7l1,0,1-.13.5-.08.59-.5.63-.46.42-.13,1.6,0h2.15l.76-.88.8-.76.34-.13.8-.13h3.58l1.09,0,1.35,0h2.1l3.79.08,2.65,2,2.48,2ZM64.9,5.15l.14.31.44,1.69.1,1.45L65.43,10,65,11.31l-.63,1.26-1.11,1.6L62,15.52l-2,1.93-1.35,1.21-1.26,1.45-2,2.18-3.43,3.29-1.4,1.69,0,.82.39.82.13-.06.13-.09.88-.67L53.1,27l1.22-1.26.88-1.05,1.14-1.43,1-1.05,1.18-1.35,1.26-1.18,1.85-1.6,1.47-1.43,1.35-1.51,1-1.56L66,12.19l.34-1.72.08-.59,0-1.56-.17-1.09-.55-1.05L65,5.25ZM41,21l-.22,0-.48,0-.63.63-.92,1L38,23.84l-.92,1.26-.73,1-.87,1.06-.77,1-1,1.4-1.31,2L31,33.84l-1.31,1.93L28.34,37.9l-1.4,2.37-1.35,2.32L24.33,45l-1,1.84-.34.77-.44,1-.29.58-.44.58V50l.15.48.39.73.1-.08.62-.7.57-.83.65-1.26L25,47l.65-1.33.86-1.83,1.11-2.08.9-1.44.9-1.4L30,37.75,31,36.42l1.22-2,1.51-2.22,1.51-2.12L36.88,28l.9-1,1-1.08L40,24.08l.79-1.15.32-.61.25-.47-.18-.65ZM27,53h-.18l-.29.1-.82.92-.73.48L24,55l-1,.48.29.73,1.16.08.34-.09.86-.5.65-.39.65-.5.32-.43.14-.43,0-.39-.18-.25L27.12,53ZM63.23,38.63l-.12.24-.14.39.1,1.79.15,2.08-.15,1.45-.34.68-.63.77L60.4,47.48,59,50.72l-1.45,1-1.74,1.21-1.45,1-1.4,1-.82.63-.77,0-1.69.24-2,.19-.82,1.16-2,0H39.12l-.68.87-.44.48-.43.19H34l-5.22.1L22.39,59,17.6,59,15.23,61.3l-2.56,2.13-2.13,2-.77,1.16-.53,1.11-.58.53-.82.29-1,.34L6,69.09l-.77.43-.77.53a7.63,7.63,0,0,0-.68.77l-.44.29-.39.58-.82.68H2l0,.1.11.44.07.37.29.15.4-.07.48-.26L4,72.75a3.71,3.71,0,0,1,.4-.44l.51-.55.4-.51L6,70.74l1.54-.55,1.06-.44.73-.33.4-.33.29-.51.15-.62.22-.44,1.79-1.68,1.43-1.35,2.08-1.9,1.72-1.46.77-.66,6.07-.11,7.49,0,4.17-.11h2.19l.44-.29.62-.84.66-.62h4l3.91-.11.48-1,2.56-.33L52,56.89l.58-.11.8-.44L55,55.14l1-.84,1.13-.88.58-.4.58-.22.69-.15.37-.11.33-.33.58-.77.44-.91.51-1.1.77-1.24.37-.77.55-.77.48-.44.26-.15,0-2.27V40.37l-.18-1-.18-.51Z"/><path class="cls-2" d="M132.05,24.75a3.81,3.81,0,0,1-1.39,2.18c-1.24,1-4.3,2.06-6.34,4.58a4.84,4.84,0,0,0-.53,5.75,1.32,1.32,0,0,0,1.09.53,7.36,7.36,0,0,1-.17-1.89,7.55,7.55,0,0,1,2.71-4.7c.18-.16.53-.44.94-.74a10.81,10.81,0,0,0,1.29-1,20.33,20.33,0,0,0,1.49-1.5,18.32,18.32,0,0,1-1.31,1.68,10,10,0,0,1-1.2,1.17l-.87.78A7.84,7.84,0,0,0,126.49,33a8.42,8.42,0,0,0-.75,1.38,3.66,3.66,0,0,0-.35,1.56,7.57,7.57,0,0,0,.52,2.63,2.23,2.23,0,0,0,1.82-.08,9.34,9.34,0,0,0,1.85-1.33L128.75,36l1.57.34a9,9,0,0,0,1.26-2l-1.53-.46,1.91-.5a12.21,12.21,0,0,0,.6-2.92l-1.52.26h0l-.17,0,1.74-1.16a17.26,17.26,0,0,0-.57-4.88"/><path class="cls-2" d="M124.31,31.5c1.84-2.27,4.5-3.34,5.92-4.27-1.22,1.11-4,2.37-5.71,5a5,5,0,0,0-.16,5.49,1.21,1.21,0,0,1-.57-.44,4.84,4.84,0,0,1,.53-5.75"/><path class="cls-3" d="M131.53,24.1a3.81,3.81,0,0,1-1.39,2.18c-1.24,1-4.3,2.06-6.34,4.58a4.84,4.84,0,0,0-.53,5.75,1.32,1.32,0,0,0,1.09.53,7.36,7.36,0,0,1-.17-1.89,7.55,7.55,0,0,1,2.71-4.7c.18-.16.53-.44.94-.74a10.81,10.81,0,0,0,1.29-1,20.33,20.33,0,0,0,1.49-1.5A18.32,18.32,0,0,1,129.29,29a10,10,0,0,1-1.2,1.17l-.87.78A7.84,7.84,0,0,0,126,32.33a8.42,8.42,0,0,0-.75,1.38,3.67,3.67,0,0,0-.35,1.56,7.57,7.57,0,0,0,.52,2.63,2.23,2.23,0,0,0,1.82-.08,9.34,9.34,0,0,0,1.85-1.33l-.84-1.11,1.57.34a9,9,0,0,0,1.26-2l-1.53-.46,1.91-.5a12.21,12.21,0,0,0,.6-2.92l-1.52.26h0l-.17,0L132.09,29a17.26,17.26,0,0,0-.57-4.88"/><path class="cls-3" d="M123.79,30.86c1.84-2.27,4.5-3.34,5.92-4.27-1.22,1.11-4,2.37-5.71,5a5,5,0,0,0-.16,5.49,1.21,1.21,0,0,1-.57-.44,4.84,4.84,0,0,1,.53-5.75"/><rect class="cls-4" width="149.54" height="73.41"/></g></g></svg>